<svg xmlns="http://www.w3.org/2000/svg" class="HeroAbility-icon HeroAbility-icon--hoverState" viewBox="0 0 40 40" preserveAspectRatio="xMidYMid meet"><path fill="#803c51" d="M22.43,28.65,32.59,33a.53.53,0,0,0,.71-.71L28.94,22.13A.53.53,0,0,0,28.1,22l-5.8,5.8A.53.53,0,0,0,22.43,28.65Z"></path><path fill="#803c51" d="M17.57,10.76,7.41,6.4a.53.53,0,0,0-.71.71l4.36,10.17a.53.53,0,0,0,.84.13l5.8-5.8A.53.53,0,0,0,17.57,10.76Z"></path><path fill="#803c51" d="M11.06,22.13,6.69,32.29a.53.53,0,0,0,.71.71l10.17-4.36a.53.53,0,0,0,.13-.84L11.9,22A.53.53,0,0,0,11.06,22.13Z"></path><path fill="#803c51" d="M28.94,17.28,33.31,7.11a.53.53,0,0,0-.71-.71L22.43,10.76a.53.53,0,0,0-.13.84l5.8,5.8A.53.53,0,0,0,28.94,17.28Z"></path><circle fill="#803c51" cx="20" cy="19.7" r="4.63"></circle></svg>