<svg xmlns="http://www.w3.org/2000/svg" class="HeroAbility-icon HeroAbility-icon--hoverState" viewBox="0 0 40 40" preserveAspectRatio="xMidYMid meet"><g id="_Group_" data-name="&lt;Group&gt;"><path fill="#803c51" id="_Path_" data-name="&lt;Path&gt;" d="M31,24.23H23.36l-2,7.74a1.51,1.51,0,0,1-1.49,1.13H14.4a1.88,1.88,0,0,1-1.82-2.27l1.71-6.6H7.83A1.88,1.88,0,0,1,6,22L7.48,16.3A1.51,1.51,0,0,1,9,15.17h7.67l2-7.74A1.51,1.51,0,0,1,20.14,6.3H25.6a1.88,1.88,0,0,1,1.82,2.27l-1.71,6.6h6.46A1.88,1.88,0,0,1,34,17.44L32.52,23.1A1.51,1.51,0,0,1,31,24.23Z" fill-rule="evenodd"></path></g></svg>