<svg xmlns="http://www.w3.org/2000/svg" class="HeroAbility-icon HeroAbility-icon--hoverState" viewBox="0 0 40 40" preserveAspectRatio="xMidYMid meet"><path fill="#803c51" d="M12.2,28.43a51.61,51.61,0,0,0-1.74-4.92A32.68,32.68,0,0,0,8.3,20.8S9.37,20,9.48,17.53a27.52,27.52,0,0,0,0-3.3l2.14-.85,1.27-3.09a6,6,0,0,0,2.42,0C16,10,18.13,7.63,19.9,6.92a11.67,11.67,0,0,1,3.45-.12,3.39,3.39,0,0,0,1.92-.36,3.88,3.88,0,0,1-1.16.8,7.71,7.71,0,0,0-1.17.81,5.5,5.5,0,0,0-1,2,4.14,4.14,0,0,1,2.69-.44c1.09.4,1.41.62,2.19.81a12.21,12.21,0,0,1,2.36,1.14,1.72,1.72,0,0,0,1.7.23A12.28,12.28,0,0,0,33.52,11a30.82,30.82,0,0,1-4.38,3.07,6,6,0,0,0,.35,2,10.7,10.7,0,0,1,1,1.87s3.29-1.14,4-1.51a24.5,24.5,0,0,0-4.9,5.61s-.66.74-1.26,1.56a10.75,10.75,0,0,0-1.09,2.61l-.67,2.21a23.4,23.4,0,0,0,.2-3.61,1.1,1.1,0,0,0-.23-.48A5.75,5.75,0,0,0,26.3,22s-.1-.2-.55,0L26,21s-1.34.41-1.91.66a2.85,2.85,0,0,1-.33.14s.15-.09.21-.56a2.9,2.9,0,0,1,.33-.93s-1.81.63-2.84,1a4.22,4.22,0,0,0-1.33.6l0-.79L18.55,22.6l-4-2.29.22,1.48-2.19-.27a5.1,5.1,0,0,1,.3,1.08l-.57-.09a5.51,5.51,0,0,0-.22,2.36.49.49,0,0,1,0,.28C12,25.27,11.75,25.68,12.2,28.43Z"></path><path fill="#803c51" d="M25.67,24.67a.7.7,0,0,0-.46,0,30.86,30.86,0,0,0-4.66,4.52,1.11,1.11,0,0,0-.12.37l-.15,1.05c0,.13.31.34.31.34a25,25,0,0,1,2.31,1.84,1.41,1.41,0,0,1,.36.75c0,.27.21.16.21.16a6.46,6.46,0,0,0,.76-.81,17.12,17.12,0,0,0,1.34-2.29,8,8,0,0,0,.82-3A6.21,6.21,0,0,0,25.67,24.67Zm-1.73,5.67a3.23,3.23,0,0,1-2-.12.61.61,0,0,0-.61,0l-.43.29.77-1a.58.58,0,0,1,.26-.2,7.33,7.33,0,0,1,1.58-.19,11,11,0,0,0,2-.4A3.21,3.21,0,0,1,23.95,30.34Z"></path><path fill="#803c51" d="M17.19,27.24,15,25.35a.05.05,0,0,1,0-.07,1.58,1.58,0,0,1,.85-.44.22.22,0,0,1,.19,0,2.78,2.78,0,0,1,.3.39C16.56,25.51,17.19,27.24,17.19,27.24Z"></path><path fill="#803c51" d="M21,27.24l2.14-1.89a.05.05,0,0,0,0-.07,1.58,1.58,0,0,0-.85-.44.22.22,0,0,0-.19,0,2.78,2.78,0,0,0-.3.39C21.61,25.51,21,27.24,21,27.24Z"></path><path fill="#803c51" d="M13,31.83s-2.83-3.9-4.62-6a23.1,23.1,0,0,1,0-7.73l1.23-1.17.1,5.64a12.21,12.21,0,0,0,1.09,2.75,11.8,11.8,0,0,0,.86,1l.61,2.29a.4.4,0,0,1,0,.07,11.23,11.23,0,0,0,.25,1.53A10.82,10.82,0,0,0,13,31.83Z"></path><path fill="#803c51" d="M25.75,31.82s2.83-3.9,4.62-6a28.49,28.49,0,0,0,.12-5.47L29,22.78a9.78,9.78,0,0,1-1,2.49,11.8,11.8,0,0,1-.86,1l-.61,2.29a.4.4,0,0,0,0,.07,11.23,11.23,0,0,1-.25,1.53A10.82,10.82,0,0,1,25.75,31.82Z"></path></svg>