<svg xmlns="http://www.w3.org/2000/svg" class="HeroAbility-icon HeroAbility-icon--hoverState" viewBox="0 0 40 40" preserveAspectRatio="xMidYMid meet"><path fill="#b68c52" d="M25.29,21.55c.48-.2.55-1.07.15-1.93s-1.11-1.4-1.6-1.2-.55,1.07-.15,1.93S24.81,21.76,25.29,21.55Z"></path><path fill="#b68c52" d="M14.64,21.55c.48.2,1.2-.33,1.6-1.2s.33-1.73-.15-1.93-1.2.33-1.6,1.2S14.16,21.35,14.64,21.55Z"></path><path fill="#b68c52" d="M30,27.15l-1.1-.58a.49.49,0,0,0-.29,0l-1.53-.81H27a15.84,15.84,0,0,0-.9-5.61.39.39,0,0,1,0-.11c-.07-.93.27-1.66-1.31-4.38s-3.25-2.86-5-2.76a6.34,6.34,0,0,0-6.07,6.64.41.41,0,0,1,0,.26,17,17,0,0,0-.9,6l-.06,0-1.53.81a.49.49,0,0,0-.29,0l-1.1.58a.54.54,0,0,0-.17.76,6.21,6.21,0,0,0,.91,2.42,6.87,6.87,0,0,0,1.69,2.05.6.6,0,0,0,.77.27l1.1-.58a.46.46,0,0,0,.2-.23l1.52-.8A.57.57,0,0,0,15.9,31a8.92,8.92,0,0,0,4,.81,8.91,8.91,0,0,0,4-.8L24,31l1.52.8a.46.46,0,0,0,.2.23l1.1.58a.6.6,0,0,0,.77-.27,7.07,7.07,0,0,0,1.66-2.05,6.61,6.61,0,0,0,.94-2.42A.54.54,0,0,0,30,27.15Zm-6.87-9.44c.71-.3,1.76.49,2.35,1.76S26,22,25.24,22.31s-1.76-.49-2.35-1.76S22.41,18,23.12,17.72Zm-8.8,1.76c.59-1.27,1.64-2.05,2.35-1.76s.81,1.57.22,2.83-1.64,2.05-2.35,1.76S13.74,20.74,14.33,19.47ZM13.07,29a7,7,0,0,0-1.54-2.06,6.49,6.49,0,0,1,1.65,2,6.84,6.84,0,0,1,.95,2.46A7.52,7.52,0,0,0,13.07,29Zm3.22,1.64-.21.11A.76.76,0,0,0,16,30a3.72,3.72,0,0,0-.67-2.28,4,4,0,0,0-1.63-1.68.86.86,0,0,0-.28-.28l0,0a.74.74,0,0,1,1,.29,6.16,6.16,0,0,1,1.33,1.69,4.72,4.72,0,0,1,.77,1.92A.67.67,0,0,1,16.3,30.62Zm2.33-7.07c-.15-.28-.76,0-1.25.91-.27.5-.2-2.14,1.13-2.14.47,0,.81.44.81,1.11S18.78,23.83,18.63,23.55Zm1.27-4.71c-1.59,0-4.25,6.45-3.73,4.59.38-1.36,2.22-5.57,3.7-5.57s3.22,3.71,3.76,5.57S21.48,18.84,19.89,18.84Zm2.52,5.62c-.49-.89-1.1-1.19-1.25-.91s-.69.56-.69-.12.35-1.11.81-1.11C22.61,22.32,22.69,25,22.41,24.46Zm2.05,3.42A3.7,3.7,0,0,0,23.76,30a.76.76,0,0,0,0,.69l-.21-.11a.67.67,0,0,1-.26-.94A4.72,4.72,0,0,1,24,27.76a6.16,6.16,0,0,1,1.33-1.69.74.74,0,0,1,1-.29l0,0a.86.86,0,0,0-.28.28A5.19,5.19,0,0,0,24.47,27.89Zm2.23,1.2a7.15,7.15,0,0,0-1,2.29A6.36,6.36,0,0,1,26.58,29a8,8,0,0,1,1.68-2.12A9.09,9.09,0,0,0,26.69,29.09Z"></path><path fill="#b68c52" d="M19,12c-.18.34-.22.49-.21.58s.39,0,1.41,0,1.42.09,1.37-.11-.09-.34-.09-.34a.18.18,0,0,0,0-.17,2.58,2.58,0,0,0,.92-.69A15.79,15.79,0,0,0,23.75,9c.54-.93-.24-.19-.54,0s-.16-.19-.24-.49a2.66,2.66,0,0,0-.3-.89,1.88,1.88,0,0,1,0-1.53c.12-.55,0-.34-.41,0S21.14,6.94,21,7.1s0-.19-.39-1.15-.55-1.06-.5-.22-.9,1.64-1.78,2.57A1.82,1.82,0,0,0,18,10.39c.09.2-.76.09-1.27-.12s-.15.28.09,1.05C17.15,12.51,18.09,12,19,12Z"></path></svg>