<svg xmlns="http://www.w3.org/2000/svg" class="HeroAbility-icon HeroAbility-icon--hoverState" viewBox="0 0 40 40" preserveAspectRatio="xMidYMid meet"><path fill="#d79342" d="M33.06,20.36a3.51,3.51,0,0,1-.84-1.67c-.29-.82-1.15-2.53-1.53-3.33-1-2.13-.26.16,0,1l.06.21c-.87-1.32-2.37-2.62-6.7-4.91-6.63-3.5-7.88-3.32-10.18-4.9s-.91-.64-.57.16,1,4.49,2.33,5.39,4,2.33,3,1.93a13.1,13.1,0,0,1-2.9-1.53c-.7-.51-.95-.51.84,1.21s1.52,1.45,1.77,1.63,1.73.75-.66.17-4.77-1.14-6.35-1.55A12.62,12.62,0,0,1,7.7,12.87c-.77-.51-2.48-2.08,0,.64s3.74,4.32,4.93,5,5,.76,1.41,1.11a12,12,0,0,1-5.43-.39c-1.55-.28-3.11-.8-1.93-.1S9.33,22,11.36,22.25s2.06.32.79.24-1.81-.22-.39.2a18.33,18.33,0,0,1,2.46.93A2.57,2.57,0,0,1,16,25.51a5.66,5.66,0,0,0-1.77,1.71c-.58.78-1.11,1.45-1.49,2.07-.18.29,2.09-.56,3.63-1.18.07.57.14,1.12.21,1.61.13,1.08.17,1.33.31-.18s.08-1,.16-.55.17,1.1.24.18c0-.34.08-.91.14-1.5l.21-.1h0A7.3,7.3,0,0,0,18,29.28c.38,1.13.9,2.8,2.29,2.8s3-1.27,3.72-1.27h0c.76,0,2.34,1.27,3.72,1.27s1.9-1.67,2.29-2.8.8-3.82-.8-3.82-3,2.47-5.19,2.47h0a5.31,5.31,0,0,1-3.11-1.45c2.44-.53,4.84-.55,6.38-.87a6.12,6.12,0,0,0,3.28-1.73c0,.05,0,.11,0,.16.35,1.63-.1,3.58-.45,5.66s.32-.43.52-1.13.06.41,0,1.24.27-.35.58-1.26,2.08-6.58,2.27-7.18S33.57,20.88,33.06,20.36Zm-9.87,8.46a2.68,2.68,0,0,0,.67.08h.25a2.68,2.68,0,0,0,.67-.08c1.89-.4,3.06-2.16,4.32-2.16,1.1,0,.54,1.65.36,2.65s-.66,2-1.83,2-2.7-1.47-3.64-1.47h0c-.94,0-2.47,1.47-3.64,1.47s-1.64-1-1.83-2a8.11,8.11,0,0,1-.29-2,13.19,13.19,0,0,1,1.32-.47C20.56,27.26,21.63,28.49,23.18,28.82Z"></path></svg>