<svg xmlns="http://www.w3.org/2000/svg" class="HeroAbility-icon HeroAbility-icon--hoverState" viewBox="0 0 40 40" preserveAspectRatio="xMidYMid meet"><path fill="#ede582" d="M27.3,21.28c.89-.74,1.49-2.05,1.49-4.27,0-7.7-5.9-10.52-8.74-10.52H20c-2.85,0-8.73,2.83-8.74,10.52,0,2.21.6,3.53,1.49,4.27-1.36-.21-2.25,0-2.25,1.68,0,2.33,1.65,1.86,2,1.87S14,26.12,14.71,27s1.34,1.61,1.87-.23.71-2.55.91-3.14.39-.85,2.48-.85H20c2.09,0,2.29.26,2.48.85s.37,1.3.91,3.14,1.15,1.1,1.87.23,1.83-2.15,2.22-2.16,2,.46,2-1.87C29.54,21.31,28.66,21.07,27.3,21.28ZM23.69,8.5c.51.14.84.55.74.92a.86.86,0,0,1-1.1.41c-.51-.14-.84-.55-.74-.92A.86.86,0,0,1,23.69,8.5ZM22.6,10.88a1,1,0,0,1,2,.55,1,1,0,0,1-2-.55Zm2.1,3a1,1,0,1,1-.82-1.23A1,1,0,0,1,24.7,13.91ZM16.31,8.5a.86.86,0,0,1,1.1.41c.1.37-.23.78-.74.92a.86.86,0,0,1-1.1-.41C15.47,9.06,15.8,8.64,16.31,8.5Zm-.15,1.79a1,1,0,0,1,1.23.58,1,1,0,0,1-2,.55A1,1,0,0,1,16.16,10.3Zm0,2.38a1.08,1.08,0,1,1-.82,1.23A1,1,0,0,1,16.11,12.68ZM17.36,17c-.29.24-2.09,1.58-2.35,1.79s-.32.2-.5,0a5.24,5.24,0,0,1-.39-.4c-.22-.24,0-.33.28-.56s2.08-1.28,2.79-1.65c.49-.26.29,0,.46.27S17.65,16.73,17.36,17ZM20,14.43a1.07,1.07,0,1,1,1.1-1.07A1.09,1.09,0,0,1,20,14.43Zm0-3a1,1,0,0,1-1.1-.89,1.12,1.12,0,0,1,2.19,0A1,1,0,0,1,20,11.47ZM20,9.3c-.6,0-1.1-.31-1.1-.69s.49-.69,1.1-.69,1.1.31,1.1.69S20.6,9.3,20,9.3Zm5.87,9.1a5.24,5.24,0,0,1-.39.4c-.18.17-.25.17-.5,0S22.92,17.21,22.64,17s-.46-.28-.29-.51,0-.53.46-.27c.7.37,2.46,1.42,2.79,1.65S26.09,18.16,25.87,18.4Z"></path><ellipse fill="#ede582" cx="20" cy="13.34" rx="0.79" ry="0.77"></ellipse><ellipse fill="#ede582" cx="20" cy="10.51" rx="0.79" ry="0.64"></ellipse><ellipse fill="#ede582" cx="20" cy="8.54" rx="0.79" ry="0.5"></ellipse><ellipse fill="#ede582" cx="23.65" cy="13.7" rx="0.77" ry="0.73" transform="translate(6.07 34.63) rotate(-80.05)"></ellipse><ellipse fill="#ede582" cx="23.63" cy="11.14" rx="0.64" ry="0.74" transform="translate(6.59 30.94) rotate(-74.54)"></ellipse><ellipse fill="#ede582" cx="23.46" cy="9.1" rx="0.5" ry="0.69" transform="translate(8.44 29.28) rotate(-74.54)"></ellipse><ellipse fill="#ede582" cx="16.35" cy="13.7" rx="0.73" ry="0.77" transform="translate(-2.12 3.03) rotate(-9.95)"></ellipse><ellipse fill="#ede582" cx="16.41" cy="11.14" rx="0.74" ry="0.64" transform="translate(-2.38 4.78) rotate(-15.46)"></ellipse><ellipse fill="#ede582" cx="16.47" cy="9.13" rx="0.69" ry="0.5" transform="translate(-1.84 4.72) rotate(-15.46)"></ellipse><path fill="#ede582" d="M26.74,26.25c-.1.07-1,1.26-1.54,1.77s-1.74,1-2.25-.38c-.71-2-.81-2.82-1-3.48s-.33-.92-1.88-.93H20c-1.54,0-1.66.29-1.88.93s-.32,1.47-1,3.48c-.5,1.41-1.69.82-2.25.38a17.34,17.34,0,0,1-1.54-1.77c-.1-.07-.22.18.31,1s2.6,3.54,3.07,4.19a3.47,3.47,0,0,0,3.27,2h.18a3.47,3.47,0,0,0,3.27-2c.47-.66,2.54-3.34,3.07-4.19S26.84,26.18,26.74,26.25Z"></path></svg>