<svg xmlns="http://www.w3.org/2000/svg" class="HeroAbility-icon HeroAbility-icon--hoverState" viewBox="0 0 40 40" preserveAspectRatio="xMidYMid meet"><path fill="#468c43" d="M18.53,15.82c.1,1.59.59,1.65,1.47,1.65s1.38-.06,1.47-1.65c.16-2.56-.44-3.13-1.47-3.13S18.37,13.27,18.53,15.82Z"></path><path fill="#468c43" d="M15.46,16c.91-.77.79-2.34,1.5-2.94a4.57,4.57,0,0,1,3-1.46,4.57,4.57,0,0,1,3,1.46c.7.61.59,2.17,1.5,2.94.28.24,2.25,1.55,1.43-.5a4.24,4.24,0,0,1,.11-1.67c.2-1-.21-1.5-1.55-2.81A7.33,7.33,0,0,0,20,9.11,7.33,7.33,0,0,0,15.47,11c-1.34,1.31-1.75,1.81-1.55,2.81A4.24,4.24,0,0,1,14,15.52C13.21,17.56,15.18,16.25,15.46,16Z"></path><path fill="#468c43" d="M13,19c0-.26.25-.87.3-1.26s0-1,.06-1.53.22-.64.29-1.15-.06-.53-.37-1.27S11,15.86,10.64,16.58c-.56,1.08-.52,1.76-.22,1.86a3.06,3.06,0,0,1,1.3.66c.41.41.76,1,1,1S13,19.47,13,19Z"></path><path fill="#468c43" d="M14.32,22.14c.1,0,3.05,1,3.38,1,.17,0,.27-.12.29-.29s.07-.33-.06-.38-2.72-.81-3.25-1-.48.1-.52.34C14.16,21.86,14.22,22.11,14.32,22.14Z"></path><path fill="#468c43" d="M11.48,19.81c0-.74-.74-.9-1-.94s-.73.53-.84.72a3.32,3.32,0,0,0-.49.86c-.06.24.21.19.43.19a1.33,1.33,0,0,1,.86.55,13.59,13.59,0,0,1,1.28,2.19,6.37,6.37,0,0,1,.26,2.18c.06.41.86-.7,1-2.09a3.49,3.49,0,0,0-1.23-2.55C11.46,20.65,11.49,20.55,11.48,19.81Z"></path><path fill="#468c43" d="M10.47,23.59a12.24,12.24,0,0,1-.44-2,.94.94,0,0,0-1.17-.7,18.69,18.69,0,0,0-1.46,1.82,24.92,24.92,0,0,1-2.32,1.94c-.31.24.8,2.28,1.59,2.85S6.4,28,5.29,26.7s-1.09-3-1.21-4-1.91,1.71-1.91,4.1a3.16,3.16,0,0,0,3.46,3.11c3.24-.26,6.07-3,5.75-4.46A6.69,6.69,0,0,0,10.47,23.59Z"></path><path fill="#468c43" d="M28.28,19.1a3.06,3.06,0,0,1,1.3-.66c.3-.09.34-.78-.22-1.86-.37-.72-2.32-3.52-2.63-2.77s-.44.76-.37,1.27.24.62.29,1.15,0,1.24.06,1.53.29,1,.3,1.26c0,.44-.16,1.12.23,1.09S27.87,19.51,28.28,19.1Z"></path><path fill="#468c43" d="M25.9,17.21c-1.17-1.37-4-1.39-4-.87C21.94,18,20.48,18,20,18s-1.94,0-1.94-1.65c0-.52-2.79-.5-4,.87s-.67,2.71-.89,2.94S13,20.6,13,21.33c0,1.14,0,1.18.27,1.18.57,0-.06-1.14.57-1.94A1.74,1.74,0,0,1,15.56,20a5.09,5.09,0,0,1,3.38,2.22,3.49,3.49,0,0,1,.52,2.32c0,.36,0,.45.54.45s.52-.09.54-.45a3.49,3.49,0,0,1,.52-2.32A5.09,5.09,0,0,1,24.44,20a1.74,1.74,0,0,1,1.73.59c.63.8,0,1.94.57,1.94.27,0,.27,0,.27-1.18,0-.73,0-.94-.21-1.18S27.07,18.58,25.9,17.21Z"></path><path fill="#468c43" d="M22.3,23.19c.32,0,3.27-1,3.38-1s.16-.28.16-.28c0-.23,0-.51-.52-.34s-3,.88-3.25,1-.09.23-.06.38S22.13,23.21,22.3,23.19Z"></path><path fill="#468c43" d="M26.27,22.55c0-.39-.29-.28-.55.35a2.13,2.13,0,0,1-2,1.37c-1.14,0-1.48-.21-1.7-.73s-.48-.78-.82-.41a1.24,1.24,0,0,0-.31,1.07c0,.7.16,1.32-.85,1.32s-.88-.63-.85-1.32a1.24,1.24,0,0,0-.31-1.07c-.33-.37-.6-.12-.82.41s-.56.73-1.7.73a2.13,2.13,0,0,1-2-1.37c-.26-.63-.53-.74-.55-.35s-.47.31-.47.5c0,.92,1.14,2.35,2.31,3.52a4.25,4.25,0,0,0,2.71,1.37c.23-1.15,1.79-1.56,1.71-1.59s1.56.32,1.71,1.59a4.26,4.26,0,0,0,2.71-1.37c1.17-1.17,2.29-2.6,2.31-3.52C26.74,22.86,26.29,22.94,26.27,22.55Z"></path><path fill="#468c43" d="M29.6,21.18a1.33,1.33,0,0,1,.86-.55c.22,0,.49.06.43-.19a3.32,3.32,0,0,0-.49-.86c-.1-.19-.53-.75-.84-.72s-1,.2-1,.94,0,.84-.19,1.1a3.49,3.49,0,0,0-1.23,2.55c.09,1.39.89,2.49,1,2.09a6.37,6.37,0,0,1,.26-2.18A13.59,13.59,0,0,1,29.6,21.18Z"></path><path fill="#468c43" d="M35.91,22.74c-.12.93-.1,2.67-1.21,4s-2.16,1.4-1.37.84,1.9-2.61,1.59-2.85a24.92,24.92,0,0,1-2.32-1.94,18.69,18.69,0,0,0-1.46-1.82.94.94,0,0,0-1.17.7,12.24,12.24,0,0,1-.44,2,6.69,6.69,0,0,0-.92,1.9c-.32,1.46,2.51,4.2,5.75,4.46a3.16,3.16,0,0,0,3.46-3.11C37.82,24.45,36,21.94,35.91,22.74Z"></path><path fill="#468c43" d="M20,26.63a1.88,1.88,0,0,0-1.4,1.52c0,.57.8,1,1.4,1s1.4-.34,1.4-1A1.63,1.63,0,0,0,20,26.63Z"></path></svg>