<svg xmlns="http://www.w3.org/2000/svg" class="HeroAbility-icon HeroAbility-icon--hoverState" viewBox="0 0 40 40" preserveAspectRatio="xMidYMid meet"><path fill="#7d3e51" class="cls-2" d="M29.23,18.67c-.43-1.38-1.42-2.18-1.23-3.07A17.25,17.25,0,0,1,28.76,14s.31-.5.33-.4C29.3,13.46,26,9.17,25.6,8.8c-1.66-1.59-3.59-1.92-5.83-2a6.9,6.9,0,0,0-5.6,2A14.88,14.88,0,0,0,12.4,11c-.14.23-1.7,1.58-1.81,2.54,0,.08.6,1,.67,1.16A2.48,2.48,0,0,1,11.68,16c0,.46-1.52,2.51-1.22,2.8,0,.12.68.69.77.8.22.28.54.71.78,1,.41.46.28.47.89.39-.13.06.81.41.95.51a5.49,5.49,0,0,1,1.15.91,4.29,4.29,0,0,1,.55,1.52c.25.87.48,1.74.67,2.63a7.12,7.12,0,0,1,.41,1.39,10.45,10.45,0,0,1,.62,2.87c0,.5.37.77.91,1.34.24.26.65.66,1,1s.35.36.57.41c.73.17,1-.75,1.19-1.27.11-.15.38-.05.51-.12a1.54,1.54,0,0,0,.57-.52c.47-.56.43-.67.5-1.43a10.45,10.45,0,0,1,1-3.78c.21-.91.46-1.8.72-2.69h0l.16-.55a6.72,6.72,0,0,0-.82-2.62l-.33-.24a2.77,2.77,0,0,1-.33-.61,7.53,7.53,0,0,0-1-.25c-.09,0,.07-.16,0-.26s-.1-1-.11-1,.6.74.61-.07a4.07,4.07,0,0,0-.76-1.46c-.33-.39-.91-.65-1.11-1.14.19.19,1.38.9,1.4.94a7.85,7.85,0,0,1,.54.78.74.74,0,0,0,0,.15q.18.35.34.7c.59-.36,3.62-2.77,4.13-1.41a4.8,4.8,0,0,1-.63,2A4.74,4.74,0,0,1,23.75,20,10,10,0,0,0,24.93,22c.35-.26.63-.6,1-.85l.06,0c.19-.1.5-.1.59-.33.3,0,.52.14.68.09s.29-.5.79-.92.7-1,1.15-1.26a.24.24,0,0,1,0,.06h0a.22.22,0,0,0,0-.07A.1.1,0,0,0,29.23,18.67Zm-11.89.83a3.13,3.13,0,0,1-3-.06,1.9,1.9,0,0,1-1.08-1.16c-.11-.26-.67-1.24-.57-1.54s1-.45,1.31-.34a7.41,7.41,0,0,1,1.45.82c.55.33,1.11.63,1.68.9.22.1.44.19.66.28s.23-.23.3-.15a3.1,3.1,0,0,1-.22.67C17.66,19.37,17.85,19.3,17.34,19.5Zm3.52,4.35c.2-.65.24-1.32.44-2,0,0,.22,0,.25,0,.48.13.28,1.35-.07,2.85S20.53,28.28,20,28.4c-1,.24-1.52-2.25-1.63-2.89-.14-.82-1-2.8-.25-3.6.09-.09.13-.15.22-.1.2.8.43,1.6.67,2.38a10,10,0,0,0,.81,2.1C20,26.48,20.73,24.25,20.86,23.85Z"></path></svg>