<svg xmlns="http://www.w3.org/2000/svg" class="HeroAbility-icon HeroAbility-icon--hoverState" viewBox="0 0 40 40" preserveAspectRatio="xMidYMid meet"><polygon fill="#7359ba" class="cls-1" points="15.06 10.09 13.37 10.09 13.37 8.39 12.04 8.39 12.04 10.09 10.34 10.09 10.34 11.41 12.04 11.41 12.04 13.11 13.37 13.11 13.37 11.41 15.06 11.41 15.06 10.09"></polygon><polygon fill="#7359ba" class="cls-1" points="22.36 7.73 20.67 7.73 20.67 6.03 19.34 6.03 19.34 7.73 17.65 7.73 17.65 9.05 19.34 9.05 19.34 10.75 20.67 10.75 20.67 9.05 22.36 9.05 22.36 7.73"></polygon><polygon fill="#7359ba" class="cls-1" points="29.33 9.81 27.64 9.81 27.64 8.12 26.31 8.12 26.31 9.81 24.61 9.81 24.61 11.14 26.31 11.14 26.31 12.83 27.64 12.83 27.64 11.14 29.33 11.14 29.33 9.81"></polygon><path fill="#7359ba" d="M33,14.2c-1,.4-2.06.77-3.09,1.08a10.65,10.65,0,0,1,1,4.66A10.93,10.93,0,1,1,9.89,15.86c-.54-.19-2.53-1.09-3-1.29A14.2,14.2,0,1,0,33,14.2Z"></path><path fill="#7359ba" d="M12.08,19.83c0-.91,0-1.82,0-2.73a.64.64,0,0,1,.38-.61l1.44-.69,5.53-2.64a1.21,1.21,0,0,1,1.11,0l6.9,3.29a.78.78,0,0,1,.48.76c0,1.78,0,3.57,0,5.35a.87.87,0,0,1-.45.77c-.65.37-1.34.67-2,1-.19.09-.27,0-.28-.18s0-.19,0-.29,0-.12-.12-.08l-.68.32a.15.15,0,0,0-.09.14s0,.09,0,.14q0,.58,0,1.17a.31.31,0,0,1-.17.3L23,26.34c-.13.06-.22,0-.23-.15s0-.57,0-.85a.9.9,0,0,0,0-.29.17.17,0,0,0-.19-.14.19.19,0,0,0-.17.18,1.45,1.45,0,0,0,0,.2c0,.39,0,.79,0,1.18a.3.3,0,0,1-.2.31c-.27.11-.52.25-.78.38s-.31,0-.32-.19c0-.42,0-.83,0-1.25a.58.58,0,0,0,0-.12c0-.08-.06-.15-.15-.15s-.14.07-.16.15a1.17,1.17,0,0,0,0,.23c0,.3,0,.6,0,.9s0,.4,0,.6a.29.29,0,0,1-.16.27.86.86,0,0,1-.94,0,.28.28,0,0,1-.16-.26c0-.45,0-.9,0-1.34a1.36,1.36,0,0,0,0-.38c0-.08-.06-.16-.17-.15s-.13.09-.15.16a1.83,1.83,0,0,0,0,.43c0,.32,0,.65,0,1s-.1.24-.27.18l-.12-.05a4.59,4.59,0,0,0-.67-.33.31.31,0,0,1-.23-.33c0-.37,0-.74,0-1.11a1,1,0,0,0,0-.3c0-.09-.09-.16-.19-.15a.19.19,0,0,0-.17.19c0,.06,0,.12,0,.19,0,.3,0,.6,0,.9s-.1.22-.24.16l-1.08-.52a.33.33,0,0,1-.19-.32c0-.39,0-.78,0-1.17a.29.29,0,0,0-.2-.31c-.19-.08-.37-.17-.56-.26s-.14,0-.15.09,0,.19,0,.29-.1.25-.27.17l-1-.46-1-.48a.93.93,0,0,1-.53-.87c0-.89,0-1.78,0-2.67Zm5.41-.16a3.86,3.86,0,0,0-.09-.73,2.38,2.38,0,0,0-.8-1.39,1.34,1.34,0,0,0-1.53-.16,1.79,1.79,0,0,0-.68.6A3.26,3.26,0,0,0,14,21.19a1.92,1.92,0,0,0,.84,1,1.27,1.27,0,0,0,1,.14,1.82,1.82,0,0,0,1-.73A3.32,3.32,0,0,0,17.49,19.68Zm8.71.26a3.35,3.35,0,0,0-.06-.66,2.76,2.76,0,0,0-1-1.71,1.39,1.39,0,0,0-1.23-.29,1.61,1.61,0,0,0-1,.8,3.07,3.07,0,0,0-.37,2.25A2.77,2.77,0,0,0,23.5,22a1.53,1.53,0,0,0,.75.35,1.42,1.42,0,0,0,1.35-.59A2.84,2.84,0,0,0,26.2,19.94ZM20.52,24h.08a.3.3,0,0,0,.26-.47.63.63,0,0,0-.26-.28L20.1,23a.24.24,0,0,0-.21,0l-.45.22a.64.64,0,0,0-.31.32.28.28,0,0,0,.19.44.59.59,0,0,0,.38,0,.77.77,0,0,1,.61,0A.43.43,0,0,0,20.52,24Z"></path></svg>