<svg xmlns="http://www.w3.org/2000/svg" class="HeroAbility-icon HeroAbility-icon--hoverState" viewBox="0 0 40 40" preserveAspectRatio="xMidYMid meet"><path fill="#6faced" d="M31.93,23c-.19-.43-.18-.41,0-.42s.5.12-.34-.71-.52-.71-1.36-1.11-1.61-.72-1.39-.84.52-.09-.13-.43c-.38-.2-.78-.39-1.08-.52h0a7.18,7.18,0,0,0-1.34-5.49l0-.06a10.21,10.21,0,0,0-1.18-2.74l.9,0c.18,0,.15.07.24.2a2.15,2.15,0,0,1,.14.57c0,.18.09.22.16.22a1,1,0,0,0,.42,0c.14-.06.14,0,.14-.21s0-.32,0-.62l.14,0,0,0a1.14,1.14,0,1,0-.06-.89l-.1-.06c0-.24,0-.45,0-.56,0-.4-.36-.33-.67-.38s-.24.33-.25.74,0,.23-.25.24l-1.62.1-.6-.52a3.36,3.36,0,0,0-1.33-.69,1.74,1.74,0,0,0-1-1.54,3.49,3.49,0,0,0-2.66-.34c-.09,0-.33-.37-.87-1.11s-.4,1.93-.12,2.6-.69-.46-1.07-1.15-.52-.92-.54.59c0,1.28.08,1.63.39,2a5.94,5.94,0,0,0-1,.68c-2,.12-3.6.21-4,.21,0,0,0,0,0,.09v.43a0,0,0,0,0,0,0l3.32-.13A4.67,4.67,0,0,0,14,12.7a9.16,9.16,0,0,0-1.14,1.72,9.57,9.57,0,0,0-.55,5.43.16.16,0,0,1-.11.17A6.82,6.82,0,0,0,9,22c-.05.07-.11.09.1.15s.38.08.12.19c-.47.21-1.74,1.88-1.39,1.79s.4-.12.25.2c-1,2.11-.76,3.78-.55,3.51s.29-.26.43-.06c.91,1.33,2.46,2.63,2.27,2.1s.55,0,1.21.31a18,18,0,0,1,2.88,1.39c1.08.69,3.8,2.44,3.56,2.09s-.63-.62,0-.43a11.13,11.13,0,0,0,2.06.46,8.65,8.65,0,0,0,3.52-1.17c1.05-.49,1-.53.83-.25s-.48.48.21.2a16.54,16.54,0,0,0,3.87-2c1.27-1,1-.71.82-.28s-.71,1,.08.41c1.8-1.24,2.12-2.66,2.09-2.15s-.13.95.2.26.38-.57.45-1.12.05-1.46.23-1.15.27.71.32-.12A8.87,8.87,0,0,0,31.93,23ZM15.41,17.6a18.77,18.77,0,0,0,2.42-1.19,3.84,3.84,0,0,1-1.12,1.06c2.2.25,5.32-1.78,5.32-1.78,0,.58-.69.91-1.25,1.12a.17.17,0,0,0,.06.34c2.32.08,3.17-.91,3.34-1.37a0,0,0,0,1,.08,0,10.29,10.29,0,0,0,.6,2.27l-.16,0a.54.54,0,0,0-.45-.17c-.89,0-2.19,0-2.64,0a1.38,1.38,0,0,0-.9.31c-.27.22-.17.27-.71.27s-.43-.05-.71-.27a1.38,1.38,0,0,0-.9-.31c-.44,0-1.75,0-2.64,0a.5.5,0,0,0-.48.23l-.08,0c0-.19.09-.33.11-.42A.16.16,0,0,1,15.41,17.6Zm8.49,1.85s0,.12,0,.49-.24.4-.58.55a4.9,4.9,0,0,1-1.3.14c-.58.06-.56-.13-.73-.43a4.91,4.91,0,0,1-.32-1.35c-.07-.48.4-.5.65-.51s.92,0,1.75,0S23.93,19.09,23.9,19.45ZM19,18.84a4.91,4.91,0,0,1-.32,1.35c-.16.3-.14.49-.73.43a4.9,4.9,0,0,1-1.3-.14c-.34-.14-.56-.18-.58-.55s0-.49,0-.49c0-.36-.28-1.09.56-1.1s1.51,0,1.75,0S19.09,18.37,19,18.84Zm5.18,5.72a2.29,2.29,0,0,0,.92-.62,1.92,1.92,0,0,1-.59.81A23,23,0,0,1,22,26.37s.42,0,.12.25A8.27,8.27,0,0,1,20.15,28a.13.13,0,0,1-.09,0c-.31-.15-2.21-1.22-1.88-1.25s.58,0,.36-.1a2.43,2.43,0,0,0-1.61-.47c-.35,0,0-.31.1-.33a3.12,3.12,0,0,0-1.72-.87.84.84,0,0,1-.58-.79,7.6,7.6,0,0,0-.66-1.25,6,6,0,0,0,1.55,1.7c-.19-.29-.4-1.46-.23-1a1.25,1.25,0,0,0,.62.63,8.71,8.71,0,0,1-.8-2.2,7,7,0,0,1-.18-3,.6.6,0,0,0,.34,0c.11,0,.26.79.32,1.1a1,1,0,0,0,.88.82,15.74,15.74,0,0,0,2,.15c.31,0,.92-1.1,1-1.45a.41.41,0,0,1,.81,0c.06.35.68,1.41,1,1.45a15.74,15.74,0,0,0,2-.15,1,1,0,0,0,.88-.82c.05-.31.21-1.09.32-1.1a1.21,1.21,0,0,0,.52-.2l.06.15c.28.7.24.93-.22,3.05S24,24.49,24.2,24.56Z"></path></svg>