<svg xmlns="http://www.w3.org/2000/svg" class="HeroAbility-icon HeroAbility-icon--hoverState" viewBox="0 0 40 40" preserveAspectRatio="xMidYMid meet"><path fill="#815049" d="M18.51,24.61a1.17,1.17,0,0,0,0-2.35H16.18a.87.87,0,0,0-.85.89v.58a.87.87,0,0,0,.85.89Z"></path><path fill="#815049" d="M24.18,21.91a.83.83,0,0,0,.81-.84V16.59a1.17,1.17,0,0,0-1.15-1.2h-.21a1.13,1.13,0,0,0-.84.38h-.6a1.13,1.13,0,0,0-.84-.38h-.21a1.13,1.13,0,0,0-.84.38h-.6a1.13,1.13,0,0,0-.84-.38h-.21a1.13,1.13,0,0,0-.84.38h-.6a1.13,1.13,0,0,0-.84-.38h-.21A1.17,1.17,0,0,0,15,16.59v4.48a.83.83,0,0,0,.81.84h.68a.83.83,0,0,0,.81-.84V17.68h.26v3.38a.83.83,0,0,0,.81.84h.68a.83.83,0,0,0,.81-.84V17.68h.26v3.38a.83.83,0,0,0,.81.84h.68a.83.83,0,0,0,.81-.84V17.88h.26v3.19a.83.83,0,0,0,.81.84Z"></path><path fill="#815049" d="M9.72,17a.69.69,0,0,0,.85,0l2-1.46a7.94,7.94,0,0,0,.26-3.06,4.55,4.55,0,0,1-.89-.31.69.69,0,0,0-.75.09,6.18,6.18,0,0,0-1,.9c-.27.28-.64.49-.74.89-.17.75-.3,1.52-.44,2.25A2.4,2.4,0,0,0,9.72,17Z"></path><path fill="#815049" d="M26.11,11.44a1.5,1.5,0,0,0,1.83-.31,1.85,1.85,0,0,0-.72-1.55,7.45,7.45,0,0,0-2.06-1.09A1.73,1.73,0,0,0,23.41,9c.18.29,0,.65.16,1C24.43,10.48,25.24,11,26.11,11.44Z"></path><path fill="#815049" d="M13.91,11.47c.67-.38,1.36-.75,2-1.1a1.24,1.24,0,0,0,.62-1.6c-1.26-.73-2.25,0-3.27.51a2.63,2.63,0,0,0-1.25,1.81A1.51,1.51,0,0,0,13.91,11.47Z"></path><path fill="#815049" d="M27.08,13c0,.27.2.39.25.63a5.51,5.51,0,0,0,0,1.13,1.34,1.34,0,0,0,.52,1.12c.51.42,1.06.78,1.59,1.16a1,1,0,0,0,.79.19,7.74,7.74,0,0,0,.55-.59.69.69,0,0,0,.18-.69c-.16-.71-.22-1.44-.46-2.2a11.25,11.25,0,0,1-1.37-1.26c-.14-.14-.28-.32-.5-.28C28.05,12.29,27.38,12.32,27.08,13Z"></path><path fill="#815049" d="M12.57,24.38a11,11,0,0,0-2.34-1.73c-.61,0-.86.56-1.26.93a3.41,3.41,0,0,1,.29,1.21A3,3,0,0,0,11,27.3c.24.15.42.39.76.39a3.49,3.49,0,0,0,1.15-.51A10,10,0,0,0,12.57,24.38Z"></path><path fill="#815049" d="M17.69,10.34c.68.16,1.28.53,2,.7a1.36,1.36,0,0,0,.93,0,13.36,13.36,0,0,1,1.88-.72,1.37,1.37,0,0,0,.35-.44l-.2-1a.59.59,0,0,0-.48-.51,11.53,11.53,0,0,1-1.51-.51,1.11,1.11,0,0,0-1,.05,5.79,5.79,0,0,1-1.14.45c-1,.32-1.19.57-1.16,1.64C17.4,10.14,17.52,10.3,17.69,10.34Z"></path><path fill="#815049" d="M9.91,20.73c-.05-.55,0-1.11,0-1.66,0-.91-.34-1.33-1.29-1.55a4.31,4.31,0,0,0-1.08,1v3a4.14,4.14,0,0,0,1.1,1,6.53,6.53,0,0,0,.64-.37A1.31,1.31,0,0,0,9.91,20.73Z"></path><path fill="#815049" d="M31.45,17.48l-.13.08a11.08,11.08,0,0,0-1,1.16c0,.92,0,1.85,0,2.78a.82.82,0,0,0,.1.27l1,.73a1.86,1.86,0,0,0,1.17-1.3c0-.89,0-1.78,0-2.66A4.91,4.91,0,0,0,31.45,17.48Z"></path><path fill="#815049" d="M33.78,16.5c0-.13-.07-.25-.1-.37h0v0h0a15.39,15.39,0,0,0-1-2.49,14.7,14.7,0,0,0-2-2.9,11.31,11.31,0,0,0-2.44-2.2A16.82,16.82,0,0,0,26.53,7.4a16.71,16.71,0,0,0-2.73-1.06A7.79,7.79,0,0,0,22.26,6,20.42,20.42,0,0,0,18.2,6,12.72,12.72,0,0,0,15,6.72a15.49,15.49,0,0,0-3.13,1.66c-.7.47-1.27,1.08-1.95,1.58-.33.25-.49.68-.8,1A11.13,11.13,0,0,0,7,14.39a12,12,0,0,0-.8,2.46,12.47,12.47,0,0,0-.33,2.2A15.46,15.46,0,0,0,6,22.13a15.9,15.9,0,0,0,1.09,3.72,13.76,13.76,0,0,0,1.29,2.26c.38.55.83,1.06,1.23,1.59a13.1,13.1,0,0,0,2.18,1.88,4.47,4.47,0,0,0,1,.64A19.77,19.77,0,0,0,16,33.65c.56.15,1.12.29,1.69.39a23.06,23.06,0,0,0,3.16.1A6,6,0,0,0,22.65,34a18.09,18.09,0,0,0,2.54-.76,22.73,22.73,0,0,0,2.24-1.09,12.85,12.85,0,0,0,2.36-1.82,13,13,0,0,0,1.5-1.67,13.14,13.14,0,0,0,1.57-2.57,9.2,9.2,0,0,0,1-3.13c0-.24.16-.39.21-.59.11-1,.06-2.07.09-3.11A10.39,10.39,0,0,0,33.78,16.5Zm-1.25,6.24a4.56,4.56,0,0,0-.73,1.57c-.09.24-.1.52-.33.72a2.28,2.28,0,0,1-1,2.25c-.57.51-1.07,1.09-1.62,1.64-.26.26-.19.63-.34.94A3.6,3.6,0,0,1,27,31.37a15.75,15.75,0,0,1-1.83.86.63.63,0,0,1-.52-.06,1.56,1.56,0,0,0-1.44,0,.67.67,0,0,1-.31.06,6.64,6.64,0,0,0-1.79.44,2.57,2.57,0,0,1-1.86,0,4.07,4.07,0,0,0-1.59-.37c-.51,0-.94-.32-1.46-.28-.31,0-.61,0-.81.26a9.08,9.08,0,0,1-2.85-1.33c-.59-.37-.73-1.07-1.09-1.61a10.77,10.77,0,0,0-2.24-2.52c-.63-.52-.43-1.35-.74-2s-.33-1.09-.53-1.62a4.18,4.18,0,0,0-1-1.16,4.06,4.06,0,0,1-.06-1.22c0-.75,0-1.5,0-2.25a1.1,1.1,0,0,1,.39-.95A2.19,2.19,0,0,0,8,16.39a20.9,20.9,0,0,0,.69-2.6,1.5,1.5,0,0,1,.65-1c.72-.57,1.32-1.26,1.94-1.86.32-1,.66-2,1.78-2.4A9.46,9.46,0,0,0,14.14,8c.9-.46,1.77-.14,2.81-.11.21-.16.66-.08,1.08-.15A8.42,8.42,0,0,1,19.76,7a1.94,1.94,0,0,1,1.15.14,15,15,0,0,1,2.37.81,3.45,3.45,0,0,1,3,.18,7.88,7.88,0,0,1,1.4.87,2.87,2.87,0,0,1,.87,1.38,3.81,3.81,0,0,0,1.71,2,3,3,0,0,1,1.28,2,15,15,0,0,0,.39,1.67,4.12,4.12,0,0,0,.25.66h0A3.79,3.79,0,0,0,33.1,18a.87.87,0,0,1,.21.7c0,.86,0,1.72,0,2.58A2.11,2.11,0,0,1,32.53,22.74Z"></path><path fill="#815049" d="M30,22.64a3.86,3.86,0,0,0-1.24.73h0l0,0a5.25,5.25,0,0,1-1,.66,1.93,1.93,0,0,0-.37,1.17,2.66,2.66,0,0,1-.29,1.57,1.42,1.42,0,0,0,2.21.45A4.84,4.84,0,0,1,30.5,26.2c.29-.83.31-1.7.57-2.54A1.62,1.62,0,0,0,30,22.64Z"></path><path fill="#815049" d="M20.08,28.6c-.92.43-1.89.62-2.73,1.13a1.3,1.3,0,0,0,.57,1.62c.19,0,.4.16.6.21.5.12.92.51,1.44.5a5.6,5.6,0,0,0,2.59-.76L22.83,30c-.7-.83-1.86-.76-2.66-1.37Z"></path><path fill="#815049" d="M14.46,28.62a4.24,4.24,0,0,0-1.09-.44,1.21,1.21,0,0,0-1.23.58c.23,1.55,1.57,2,2.75,2.62A3,3,0,0,0,16.65,31a1.67,1.67,0,0,0-.33-1.33C15.68,29.34,15.05,29,14.46,28.62Z"></path><path fill="#815049" d="M27.4,28.33a.9.9,0,0,0-1.09,0c-.43.27-.94.42-1.37.69s-1.1.5-1.45,1a7.68,7.68,0,0,0,0,1,2.15,2.15,0,0,0,2.11.12c.43-.21.82-.48,1.25-.7a1.85,1.85,0,0,0,1-2A2.08,2.08,0,0,1,27.4,28.33Z"></path></svg>