<svg xmlns="http://www.w3.org/2000/svg" class="HeroAbility-icon HeroAbility-icon--hoverState" viewBox="0 0 40 40" preserveAspectRatio="xMidYMid meet"><path fill="#815049" id="Face" d="M24.19,32.85a4.75,4.75,0,0,1-.48-1.36,9.53,9.53,0,0,0-.78-2.22c-.15-.29-.11-.38-.11-.38a3.2,3.2,0,0,1,1.84,1.25l.2.29.14-.32a7.13,7.13,0,0,1,1.33-2,5.18,5.18,0,0,0,1.21-2.73l.09-.36-.1-.08c-1.79-1.31-2.06-1.75-2.35-2.21a7.48,7.48,0,0,0-2-2,6.18,6.18,0,0,1-1-1.12,2.5,2.5,0,0,0-4.39,0,6.18,6.18,0,0,1-1,1.12,7.48,7.48,0,0,0-2,2c-.29.46-.56.89-2.35,2.21l-.1.08.09.36a5.18,5.18,0,0,0,1.21,2.73,7.1,7.1,0,0,1,1.33,2l.14.32.2-.29a3.25,3.25,0,0,1,1.8-1.25h0s.08.09-.07.38a9.53,9.53,0,0,0-.78,2.22,4.75,4.75,0,0,1-.48,1.36,8.05,8.05,0,0,1-2-2.28,14.54,14.54,0,0,0-1.58-2,8.72,8.72,0,0,1-1.67-2.32A15.58,15.58,0,0,1,9.89,24a15.94,15.94,0,0,0-.69-2.23c-.68-1.7-.68-1.7-1-2.71l0-.13H8A3.13,3.13,0,0,1,6.79,17.4a15.3,15.3,0,0,1-.36-5.14c0-.26,0-.46,0-.58A6.36,6.36,0,0,1,7.71,9.82c.6-.74.81-1,.81-1.2A2.06,2.06,0,0,1,9.7,8.13a3.75,3.75,0,0,1,.84,2.53A36.4,36.4,0,0,1,10,15.21L9.8,16.82l.35-.23a2.19,2.19,0,0,1,1.19-.26h.6a3,3,0,0,0,.42,0l.22,0a.32.32,0,0,1,.16,0h0a2.35,2.35,0,0,1-.2.26,2.64,2.64,0,0,1-.64.41A5.17,5.17,0,0,0,10,18.51l-.06.07,0,.09a6.73,6.73,0,0,0,.31.88l.12.27.37-.41a7.26,7.26,0,0,1,.78-.79c1.33-1.12,1.85-1.16,2.36-1.2a2.61,2.61,0,0,0,1-.24,1.11,1.11,0,0,1,.47-.11.55.55,0,0,1,.4.12,9.19,9.19,0,0,0-1.24,1,7,7,0,0,1-1.19.94A3.53,3.53,0,0,0,12.2,20.4a7.76,7.76,0,0,1-.84,1.13l-.08.09.05.11.25.56.1.22.19-.15a19.06,19.06,0,0,0,2.2-2A12.2,12.2,0,0,1,17,18a3.32,3.32,0,0,0,.89-.76A2.34,2.34,0,0,1,20,16.29a2.34,2.34,0,0,1,2.11.92A3.32,3.32,0,0,0,23,18a12.2,12.2,0,0,1,2.92,2.4,19.06,19.06,0,0,0,2.2,2l.19.15.1-.22.25-.56.05-.11-.08-.09a7.76,7.76,0,0,1-.84-1.13,3.53,3.53,0,0,0-1.17-1.25,7,7,0,0,1-1.19-.94,10.74,10.74,0,0,0-1.21-1s.13-.12.37-.12a1.11,1.11,0,0,1,.47.11,2.61,2.61,0,0,0,1,.24c.51,0,1,.08,2.36,1.2a7.26,7.26,0,0,1,.78.79l.37.41.12-.27a6.73,6.73,0,0,0,.31-.88l0-.09L30,18.51A5.17,5.17,0,0,0,28.1,17a2.64,2.64,0,0,1-.64-.41.7.7,0,0,1-.19-.28h.14l.22,0a3,3,0,0,0,.42,0h.6a2.19,2.19,0,0,1,1.19.26l.35.23L30,15.21a36.4,36.4,0,0,1-.51-4.55,3.69,3.69,0,0,1,.85-2.53c.34,0,1.14.33,1.17.49s.21.46.81,1.2a6.36,6.36,0,0,1,1.25,1.86c0,.12,0,.32,0,.58a15.3,15.3,0,0,1-.36,5.14A3.13,3.13,0,0,1,32,19h-.13l0,.13c-.34,1-.34,1-1,2.71A15.94,15.94,0,0,0,30.11,24a15.58,15.58,0,0,1-.68,2.19,8.72,8.72,0,0,1-1.67,2.32,14.54,14.54,0,0,0-1.58,2A8.05,8.05,0,0,1,24.19,32.85Z"></path><path fill="#815049" id="R_Brow" data-name="R Brow" d="M21,14.74c.34-.68,0,0,1.37-.34s2.06-1,3.78-1,2.75.68,2.75,1c-.34.34,0,0-2.4.34-2.07.29-3,1.91-4.12,1.36C21.72,15.76,20.69,15.42,21,14.74Z"></path><path fill="#815049" id="L_Brow" data-name="L Brow" d="M19,14.74c-.34-.68,0,0-1.37-.34s-2.06-1-3.78-1-2.75.68-2.75,1c.34.34,0,0,2.4.34,2.07.29,3,1.91,4.12,1.36C18.28,15.76,19.31,15.42,19,14.74Z"></path></svg>