<svg xmlns="http://www.w3.org/2000/svg" class="HeroAbility-icon HeroAbility-icon--hoverState" viewBox="0 0 40 40" preserveAspectRatio="xMidYMid meet"><path fill="#ecbd53" d="M29.68,20.83a1.87,1.87,0,0,0-.3-2c-1.18-1.33-1.95-2-1.44-3s.93-1.86.69-1.92-.11.37-1.18,1S26.16,16,26.12,16.17s-.44-.33-.35-.85A2.82,2.82,0,0,0,25,11.93c-1.73-1.43-.12-2.58,1.2-3.14,0,0,.27-.31-.35-.18a6.63,6.63,0,0,0-3.76,2c-.7.79-.22,1.17-.79.63a3.91,3.91,0,0,1-.1-3.88c.1-.13-1.36,0-2.13,2a6.17,6.17,0,0,0-.47,2.32c0,.45,0,.8-.28.11a9.54,9.54,0,0,1-1-2.64,5,5,0,0,1,.49-2.8c.21-.37-.41-.13-1.11,1a4.81,4.81,0,0,0-.85,2.32c0,.49-.11.59-.33.19s-.91-1.29-.84-.67-.46,1.41-.78,2.46a3.17,3.17,0,0,0,0,2.78s.82.82.24,1.15-.91.65-1,.95-.14.29-.2,0-.83-1.54-3.38-1.54c-1.27,0-1.31.11-1.12.15s2.7,1.3,2.23,2.76c-.56,1.75-.94,2.52-.19,3.39s1.5.68,1.08,1.43-.61,1-.51,1.34,1.09,1.25,1.17,1.48a4.25,4.25,0,0,0,.18.42c.19,0,0-.18.16-1s.54-1.09.72-1.09.36.06.68,1,.63,2.47.66,2.05-.26-3.45.24-4.57a2.7,2.7,0,0,0,.32-2.14,5.62,5.62,0,0,1,.18-2.32c.17-.57.18-1,.37-.79s.25.09.31,0,0-.34.48.28,1.78,1.18,2.13,1.46.37.31.33.59a2.06,2.06,0,0,0,.66,1.37c.44.4.36.32.39-.14a2.75,2.75,0,0,1,.35-1.49c.33-.46.18-.18.15.08a6.92,6.92,0,0,1-.13.94c-.06.17-.19.39.48-.08a4.87,4.87,0,0,0,1.68-2,5.9,5.9,0,0,0,.65-1.84c0-.32-.06-.57.23-.36a3.66,3.66,0,0,1,1.41,1.56A6,6,0,0,1,25.39,19c0,.24.08.42.12-.06a8.47,8.47,0,0,1,.08-.94c0-.24.16-.57.21-.06A18.06,18.06,0,0,1,26,21c-.07,1,.07,1.09.3,1s.49-.16.39.85-.2,3.61.19,2.5.77-1.66,1-1.7.67.52.62,1.37,0,.73.37.43A4.64,4.64,0,0,0,31,22.54C31.1,21.83,29.81,20.81,29.68,20.83Zm-.59,1.84c-.54.3-.26-.13-.11-.52a11.6,11.6,0,0,0,.69-1.28A1.46,1.46,0,0,1,29.09,22.67Z"></path><path fill="#ecbd53" d="M9.23,13.24a3.41,3.41,0,0,1-.12-.69c0-.12,0-.47-.07-.29a3.91,3.91,0,0,0,.13,1.66C9.37,14.16,9.31,13.54,9.23,13.24Z"></path><path fill="#ecbd53" d="M13.86,6.78c-.23.24.48.38.43-.87s-.48-1.67,0-2.55c.28-.51-.85.58-.83,2.54C13.46,6.63,14.09,6.54,13.86,6.78Z"></path><path fill="#ecbd53" d="M18.45,5.46c0-.07-.35.27-.46.48s.14,0,.23-.08S18.5,5.53,18.45,5.46Z"></path><path fill="#ecbd53" d="M20,7.46s0,.05.07,0l.11-.06c.15-.06.36-.16.56-.26a2.14,2.14,0,0,0,.39-.2.56.56,0,0,0,.21-.53,1.91,1.91,0,0,0,0-.24c0-.16-.13.18-.36.4l-.2.14a1.49,1.49,0,0,0-.38.26,1.79,1.79,0,0,0-.43.43S20,7.46,20,7.46Z"></path><path fill="#ecbd53" d="M21.68,5.73c.26-.15.41-.55.39-1.36s-.11-.22-.3.48S20.81,6,21,6A1.93,1.93,0,0,0,21.68,5.73Z"></path><path fill="#ecbd53" d="M28.24,7.48c.24-1.13.14-1.38,0-.89a4.52,4.52,0,0,1-1.45,1.65C26.72,8.29,28.07,8.31,28.24,7.48Z"></path><path fill="#ecbd53" d="M20.91,32.38c0-.51-.74-.4-1.08-.42s-.36.65-.45,1,1.2.71,1.54.74A10.07,10.07,0,0,0,20.91,32.38Z"></path><path fill="#ecbd53" d="M19.21,31.84c-.14-.07-1-.19-1.28-.28s-.26,0-.27.27a.48.48,0,0,0,.2.48c.16.14.78.44,1.26.71.15.08.14-.16.14-.28s0-.17.08-.46S19.36,31.92,19.21,31.84Z"></path><path fill="#ecbd53" d="M17.1,31.29c-.26-.08-.27,0-.4.17s.44.42.69.58c0,0,.07,0,0-.21S17.36,31.38,17.1,31.29Z"></path><path fill="#ecbd53" d="M16.39,30.55c0-.28-.16-.12-.34-.06s-.28.18-.19.35a1.47,1.47,0,0,0,.5.57c.15.1.27-.22.23-.29A1.49,1.49,0,0,1,16.39,30.55Z"></path><path fill="#ecbd53" d="M22.22,31.83c-.44.32-1.15.2-1.08.42.17.48-.1,1.47,0,1.46.34,0,1.64-.35,1.54-.74S22.5,31.63,22.22,31.83Z"></path><path fill="#ecbd53" d="M23.87,31.53a10.14,10.14,0,0,0-1,.29c-.14.07-.18.13-.13.43s.07.34.08.46,0,.37.14.28c.48-.27,1.1-.57,1.26-.71s0-.22-.05-.48S24.2,31.44,23.87,31.53Z"></path><path fill="#ecbd53" d="M24.86,31.14c-.38.12-.49.17-.54.47a1.08,1.08,0,0,0,.12.59c.35-.23,1.16-.57,1-.83S25.24,31,24.86,31.14Z"></path><path fill="#ecbd53" d="M26,30.47c-.18-.06-.3-.23-.34.06a1.49,1.49,0,0,1-.2.57c0,.07.07.39.23.29a1.47,1.47,0,0,0,.5-.57C26.28,30.65,26.18,30.53,26,30.47Z"></path></svg>