<svg xmlns="http://www.w3.org/2000/svg" class="HeroAbility-icon HeroAbility-icon--hoverState" viewBox="0 0 40 40" preserveAspectRatio="xMidYMid meet">
    <path fill="#51AFC7" d="M12.55,14.44a.47.47,0,0,0,.33,0c.15-.08,0-.6,0-.81s.24-.37.4-.76.33-.4.47-.26.15.34.3.34.26-.11.47-.43.41-.31.73,0,.7.77.89.77.33-.16.5-.35a.41.41,0,0,1,.56-.07h0v.06c.24.18.7.83,1,.83a1.31,1.31,0,0,0,.7-.31.51.51,0,0,1,.6,0c.17.1.51.69,1,.69s.85-.43,1.08-.6a2.9,2.9,0,0,0,.75-.55c.25-.28.31-.24.48-.1s.19.39.73.39a1.4,1.4,0,0,0,1.17-.72c.23-.34.43-.17.62.07s.18.58.61.58.31-.19.64-.19.22.28.21.49a.56.56,0,0,0,.51.58h.07c.29,0,.54.07.54-.54a.76.76,0,0,1,.19-.7,4,4,0,0,0,.67-1.76c.11-.81-.24-.95-.42-.95s-.48-.18-.1-.47,0-1.09-.33-1.29-.58.25-.78.09.32-.47.46-.73-.16-.73-.83-1.31a.9.9,0,0,0-1.24,0,.88.88,0,0,0-.19.24c-.18.37-.41,0-.22-.49S24.78,5.33,24,5s-1.88-.42-2,.06-.27.6-.43.57-.15-.4-.22-.86-.33-.71-.9-.8-.71.1-1.22.2-1,.5-1,.84-.25,0-.4-.23-1.32.36-1.23.59-.14.33-.31,0-.61-.77-1.75-.09S14,6.35,13.81,6.44s-.77.26-.57.6,0,.38-.36.27-.94.46-1.26,1.16,0,1,.19,1,.2.6-.12.6-.47.21-.47,1.08a4.09,4.09,0,0,0,.65,2A4.2,4.2,0,0,0,12.55,14.44Z"></path>
    <path fill="#51AFC7" d="M14.41,17.09a30.92,30.92,0,0,0-1.92-2.48,2.53,2.53,0,0,1-.55-.67s-.14.61,0,.76.92,1.34,1.16,1.59S14.55,17.46,14.41,17.09Z"></path>
    <path fill="#51AFC7" d="M12.15,15.5c0-.28-.29-.69-.32-.45s-.13.62,0,.68S12.16,15.77,12.15,15.5Z"></path>
    <path fill="#51AFC7" d="M12.24,15.81c-.08.27-.4.24-.4.38a2.8,2.8,0,0,0,0,1c.09.17.73-.22.76-.42C12.73,16.11,12.29,15.62,12.24,15.81Z"></path>
    <path fill="#51AFC7" d="M11.86,17.72v1.16a2.27,2.27,0,0,0,.55,1.42q.06-1.36,0-2.73C12.41,17.28,11.86,17.64,11.86,17.72Z"></path>
    <path fill="#51AFC7" d="M14.55,20c.88.11,2.33,1.29,3.14,1.29a1.16,1.16,0,0,0,1.16-.73,3.63,3.63,0,0,1-1.23,0c-.92-.14-2.23-1.35-3-1.35a1.74,1.74,0,0,0-1.56.68C12.86,20.07,13.78,19.89,14.55,20Z"></path>
    <path fill="#51AFC7" d="M23.55,19.85a5.93,5.93,0,0,1-2.57.68c-.17,0-.1.25.17.25.38-.29,2.57-.17,3.14-.48.29-.16.69-.31.83-.4.37-.23,1.23-.08,1.46-.19s-.8-.53-1.23-.53A3.66,3.66,0,0,0,23.55,19.85Z"></path>
    <path fill="#51AFC7" d="M27.65,21.92c-.28,0-.33,0-.33-.2v-.45c0-.27,0-.32.27-.49s.27-.25.29-.74-.22-.58-.56-.35a5.63,5.63,0,0,1-1.73.87,14.57,14.57,0,0,1-4,.44c-.47,0-.5.22-.5.49v2.7c0,.29,0,.28,2.08.28a9.29,9.29,0,0,0,4.42-1.22.88.88,0,0,0,.42-.82C28,22.1,27.93,21.92,27.65,21.92Z"></path>
    <path fill="#51AFC7" d="M28.16,15.61V15a2.27,2.27,0,0,0-1.06-.56c-.09,0,0,.4,0,.5s.6.6.81.78S28.16,15.73,28.16,15.61Z"></path>
    <path fill="#51AFC7" d="M28.17,17.34a2.8,2.8,0,0,0,0-1,4.36,4.36,0,0,0-.83-.57,3.35,3.35,0,0,0,0,1C27.37,16.9,28.09,17.31,28.17,17.34Z"></path>
    <path fill="#51AFC7" d="M29,17.83a1.18,1.18,0,0,0-1,.64,2.94,2.94,0,0,0-.08-.72,3.1,3.1,0,0,0-.57-.3s0,1.81.16,1.73a.43.43,0,0,1,.35,0c.53.4.27,1.17.33,1.05s.11-.56.39-.56.39.33.39,1-.38.69-.7.69-.29.26-.29.37c0,.29.09.44.59.44s1.24-1.36,1.24-2.64S29.72,17.83,29,17.83Z"></path>
    <path fill="#51AFC7" d="M27,25.43c0,1.57-1.55,3.3-2,4.57-.12.32-.32.25-.33,0v-.53a2.33,2.33,0,0,0-2.22-1.65,1.73,1.73,0,0,0-1.92,1.44c0,.24.27-.11.37-.19a2.19,2.19,0,0,1,1.32-.31A1.92,1.92,0,0,1,23.92,30v2.33c0,.15-.71,1.49-1.24,1.49s-1.82-1.17-2.53-1.17h0c-.71,0-2,1.17-2.51,1.17s-1.24-1.35-1.24-1.49V30A2,2,0,0,1,19,28.85h0l.12.05a1.59,1.59,0,0,1,.29.15c.1.08.36.43.36.18,0-.51-.63-1.36-1.93-1.36a2.34,2.34,0,0,0-2.21,1.65v.54c0,.2-.23.27-.34,0-.44-1.28-2-3-2-4.58,0-.14-.29,0-.29.31v1a7.15,7.15,0,0,0,.46,2.33,22.74,22.74,0,0,0,2.86,4.4,10.91,10.91,0,0,0,2.38,2.32,3.39,3.39,0,0,0,1.41.21,3.29,3.29,0,0,0,1.46-.21A11.19,11.19,0,0,0,24,33.53a23.49,23.49,0,0,0,2.85-4.4,7.41,7.41,0,0,0,.45-2.33v-1C27.25,25.4,27,25.29,27,25.43Z"></path>
  </svg>