<svg xmlns="http://www.w3.org/2000/svg" class="HeroAbility-icon HeroAbility-icon--hoverState" viewBox="0 0 40 40" preserveAspectRatio="xMidYMid meet"><path fill="#929da3" d="M27.87,20.35c.11-.17.1-.17,0-1.15s-.91-8.84-.94-9.12,0-.34-.55.55-.81,1.24-.82,1.68-.27,4.45-.26,4.67,0,.43-.7.72c0,0-.77-.42-1.36-.72s-.73-.15-.84-.9c0-.33-.36-3.68-.88-7A63.89,63.89,0,0,0,20,2a63.88,63.88,0,0,0-1.51,7.1c-.52,3.3-.83,6.65-.88,7-.1.75-.24.6-.84.9s-1.36.72-1.36.72c-.7-.29-.71-.5-.7-.72s-.25-4.24-.26-4.67-.28-.79-.82-1.68-.53-.82-.55-.55-.82,8.14-.94,9.12-.13,1,0,1.15.73,1.25.87,1.49.05.21-.21.41-.35.26-.37.44-.19,1.59-.25,2.12,0,.56.13.72l.63.59a3.22,3.22,0,0,1-.1.72c-.05.34.18.29.28.32a.35.35,0,0,0,.32-.1c.13-.09.17-.14.36,0a4.49,4.49,0,0,1,.58.67c.39.49.4,2.77.49,3.39a35.4,35.4,0,0,0,2.12,4.28,3.08,3.08,0,0,0,.89.81c.06,0,.72-.94.89-1.15s.12-.14.12-1.23,0-5.41,0-5.75-.16-.42-.35-.57L16.68,26c-.07-.06-1.61-.63-1.67-.65s0-.32,0-.47-.13-.53-.18-.78-.06-.41,0-.43.24.07.24.07c1.79.44,3.79,2.12,4.35,2.36s.58.18.58.18.06.05.58-.18,2.56-1.92,4.35-2.36c0,0,.18-.09.24-.07s0,.18,0,.43-.17.63-.18.78.07.44,0,.47-1.6.6-1.67.65l-1.81,1.54c-.19.15-.35.23-.35.57s0,4.66,0,5.75-.06,1,.12,1.23.84,1.15.89,1.15a3.08,3.08,0,0,0,.89-.81,35.4,35.4,0,0,0,2.12-4.28c.09-.62.09-2.9.49-3.39a4.49,4.49,0,0,1,.58-.67c.19-.17.23-.13.36,0a.35.35,0,0,0,.32.1c.1,0,.33,0,.28-.32a3.22,3.22,0,0,1-.1-.72l.63-.59c.16-.16.19-.19.13-.72s-.23-1.94-.25-2.12-.1-.24-.37-.44-.35-.17-.21-.41S27.76,20.52,27.87,20.35Z"></path><path fill="#929da3" d="M23,25.76a15.71,15.71,0,0,0,1.43-.67c-.13-.2.29-.75.14-.75s-.46.14-2,1.12-2.16,1.3-2.53,1.3-1-.32-2.53-1.3-1.87-1.12-2-1.12.26.55.14.75.9.44,1.3.67c.18.11,1.39,1,1.77,1.29s.64.47.64.75,0,1.32.05,1.42.66.48.66.48.64-.37.66-.48.05-1.14.05-1.42.27-.43.64-.75S22.82,25.86,23,25.76Z"></path></svg>