<svg xmlns="http://www.w3.org/2000/svg" class="HeroAbility-icon HeroAbility-icon--hoverState" viewBox="0 0 40 40" preserveAspectRatio="xMidYMid meet"><path fill="#a2a6bf" d="M15.77,13.58l-3-.21c-1.06,0-1.83-.21-1.87.41a8,8,0,0,0,0,1.86.93.93,0,0,0,.91.75,20.94,20.94,0,0,0,4.35.06c.82-.22,1-.51,1-1.17S17.34,13.69,15.77,13.58Z"></path><path fill="#a2a6bf" d="M27.3,13.37l-3,.21c-1.57.11-1.3,1-1.31,1.7s.14,1,1,1.17a20.94,20.94,0,0,0,4.35-.06.93.93,0,0,0,.91-.75,8,8,0,0,0,0-1.86C29.13,13.16,28.36,13.34,27.3,13.37Z"></path><path fill="#a2a6bf" d="M29.2,7.9c-4.1,0-7.34,3.67-9.2,3.67S14.9,7.9,10.8,7.9s-3.86,5.65-3.86,6.86S8,18.29,9.56,20.56s1.71,3.45,1.16,3.84-1.24.75-.85,3.11S11.7,32,12.58,32s.42-.24.6-.42.58-1.11,6.82-1.11,6.65.93,6.82,1.11-.29.42.6.42,2.33-2.15,2.71-4.51-.29-2.71-.85-3.11-.39-1.57,1.16-3.84,2.62-4.58,2.62-5.79S33.3,7.9,29.2,7.9ZM17.55,29.53a11.87,11.87,0,0,0-4.26.95c-1,.43-.88.14-1.06-.09a.2.2,0,0,1,0-.2,1.61,1.61,0,0,1,0-.17A1.16,1.16,0,0,1,12.85,29c.23-.09.59-.28.65.28h0c1.15-.59,3.52-.42,4.66-.4.89,0,1.58,0,1.59.41S19.4,29.46,17.55,29.53Zm-1.67-10.2a4,4,0,0,0,.43.94c.31.48.36.57.32.68s0,.21-.07.22a.62.62,0,0,1-.36-.07c-.11-.08-.57-.58-.83-.88s-.1-.13-.26-.46.07-.79.18-1.07.11-.28.4-.09a.25.25,0,0,1,.1.34A.84.84,0,0,0,15.87,19.33ZM19.55,22c-.22.09-.37-.55-.55-.77s-.24-.15-1.08-.95c-.35-.33-.23,0-.18.14s.11.64.14.8-.63-.43-1.07-1.37-.15-1.31.39-1.73.88.33,1.09.65l1.31,2a1,1,0,0,1,.14.29,4.85,4.85,0,0,1,.06.59C19.83,21.91,19.77,21.9,19.55,22Zm8.14,8.36c-.18.23,0,.51-1.06.09a11.88,11.88,0,0,0-4.26-.95c-1.85-.06-2.24.05-2.23-.31s.7-.39,1.59-.41c1.15,0,3.52-.19,4.66.4S27.88,30.12,27.7,30.35ZM24.32,18.59c.29-.2.29-.2.4.09s.34.74.18,1.07,0,.16-.26.46-.72.8-.83.88a.62.62,0,0,1-.36.07s0-.1-.07-.22,0-.21.32-.68a4,4,0,0,0,.43-.94.84.84,0,0,0,.08-.4A.25.25,0,0,1,24.32,18.59ZM23.2,19.85c-.43.94-1.09,1.54-1.07,1.37s.08-.63.14-.8.18-.47-.18-.14c-.84.79-.86.7-1.08.95s-.33.86-.55.77-.28-.08-.25-.37a4.85,4.85,0,0,1,.06-.59,1,1,0,0,1,.14-.29l1.31-2c.21-.32.57-1,1.09-.65S23.63,18.91,23.2,19.85Zm7.23-3.52c-.06.41-.25.75-1.26,1a24.16,24.16,0,0,1-6,.22c-1.5-.21-1.41-.79-1.44-1.12a2,2,0,0,1,0-.25v0c-.07-.3-.33-.72-1.73-.72-1.16,0-1.54.32-1.67.57l-.06.29h0v.06c-.07.31.14,1-1.45,1.18a24.16,24.16,0,0,1-6-.22c-1-.24-1.2-.57-1.26-1a14.17,14.17,0,0,1-.08-3.46c.21-1,.89-1,1.49-1s3.48.33,5.34.6,2,.84,2.4,1.45A5.68,5.68,0,0,1,20,13.77a6,6,0,0,1,1.28.19h0c.43-.61.54-1.18,2.4-1.45s4.74-.62,5.34-.6,1.28-.06,1.49,1A14.17,14.17,0,0,1,30.43,16.34Z"></path></svg>