<svg xmlns="http://www.w3.org/2000/svg" class="HeroAbility-icon HeroAbility-icon--hoverState" viewBox="0 0 40 40" preserveAspectRatio="xMidYMid meet"><path fill="#ebe8bb" d="M27.93,21.82c.12-.11,0-.15-.14-.5a6.83,6.83,0,0,1-.06-1.77,6.31,6.31,0,0,0,0-1.2.86.86,0,0,1,.14-.72c.14-.21.2-.73-.29-2.29-1.39-4.4-6-5.28-7.13-5.29s-1-.08-1.29.66-.56.61-1.26.25-1.32.45-2,1.12-.09.71.64,1.21.6.48.29.62a10.63,10.63,0,0,0-1.28.81c-.3.22-.37.07-.9-.13s-.5.15-1.83,1.51-1.9,1.94-2.29,5c0,0-.08.78-.26,2.24a8.21,8.21,0,0,1-2,4.26c-1,1.07-1.37,1.09-.28.7a19.9,19.9,0,0,0,5.4-3.51c.44.74.88,1.41,1.19,2l0,.06c-.94,2.22-.82,1.94.15.93l.22-.23h0a7.9,7.9,0,0,0,3.6,4.82c2.14,1.11,1.92,1,2.67,1a10.34,10.34,0,0,0,3.88-2.76c.82-1.29,1.91-3.43,1.1-3s-1.23.43-1.37,1.17S24.74,31,21.27,33c-1.39.82-4.53-3.23-4.53-3.84A1.28,1.28,0,0,0,16,27.92a4.26,4.26,0,0,1-.79-.55l.1-.11.18.06c.83.34,1.14.51,1.11-.1s.2-.54-.37-1a15.87,15.87,0,0,0,2.36-3.52,11,11,0,0,1,3.85-4.33c.28-.09.93.7.93.7.18.5.29.89.56-.09s1,1.78,2.07,3.37a3.72,3.72,0,0,0,.29.38c-.23.23.17,2,.24,2.39s.05.33-.1.49a4.57,4.57,0,0,1-1.3.9c-.39.22-.18.56-.11.89s.11.28.35.2l1.24-.46c.39-.15.38-.32.68-1a5.59,5.59,0,0,1,.87-1.33.8.8,0,0,0,.1-.38c.37.27.71.5,1,.67.81.55.12-.53-.34-1.11A5,5,0,0,1,27.93,21.82Z"></path><path fill="#ebe8bb" d="M29.81,22.58V16.82c0-2.57-2.43-8.73-9.26-8.73S12,14.49,11.71,15.6c0,0,0,.57.17.4a16.19,16.19,0,0,0,1.91-1.71c.2-.34,1.32-4.66,7-4.78,6.66-.14,7.82,7.29,7.89,8.2s-.06.71-.45,1.12-.3,1.39-.32,2,.37.21.65-.16.22,0,.15.44a13.17,13.17,0,0,0,0,1.58c0,.45.51.3.82.3S29.81,23,29.81,22.58Z"></path><path fill="#ebe8bb" d="M28.33,11.73a5.67,5.67,0,0,0,1.1-1.62c.17-.47-.16-.24-.29-.18a6.17,6.17,0,0,1-1.42.18c-.36,0-.56-.15-.37.15C27.82,11,28.18,11.78,28.33,11.73Z"></path><path fill="#ebe8bb" d="M22,7.55c.21.09.64.14,1,.28s.35-.05.46-.25.3-.58.65-1.15-1.36.42-2,.78C21.68,7.42,21.79,7.46,22,7.55Z"></path><path fill="#ebe8bb" d="M13.63,10.78s.31-.35.49-.52.12-.15,0-.27-.81-.39-1.46-.74.16.92.49,1.34S13.59,10.81,13.63,10.78Z"></path></svg>