<svg xmlns="http://www.w3.org/2000/svg" class="HeroAbility-icon HeroAbility-icon--hoverState" viewBox="0 0 40 40" preserveAspectRatio="xMidYMid meet"><path fill="#c0726e" d="M28.85,12.61l.78,0,1.9.09a.72.72,0,0,0,.56-.22c.48-.47,1.84-.13,2.45-.1l.73,0c.25,0,.35.1.38.35a1.81,1.81,0,0,1,0,.38c0,.43.13,2-.61,1.91-.53,0-1.07-.06-1.6-.09a2.74,2.74,0,0,1-1.5-.25,1.56,1.56,0,0,0-1.1-.3l-2.78-.13Zm-8.58,5.05c.62-.06,1,.8,1.59,1a1.45,1.45,0,0,1,.63.53,3.23,3.23,0,0,1,5.17,2.2l-6.2,7.9ZM10.6,25.88a2.35,2.35,0,0,1,.61-2c.1-.23.23-.44.34-.67.23-.46.44-1.18,1-1.32l.77-.2h0L13,21l-.29.1a10.8,10.8,0,0,1-3.33.36A6.13,6.13,0,0,1,8,21.14c-.53-.13-.72-1.61-1.27-1.51-.35.07-.55-.16-.72-.39s-.89-1.13-.52-1.62-.37-.73-.28-1.1a2,2,0,0,1,.39-1l.55-.61c.43-.47,1.11-.59,1.5-1.08.15-.18.39-.6.63-.69s.57-.46.82-.73-.65-.8-.95-.62-1.28.25-1.28-.17a1.08,1.08,0,0,1,.31-.88c.36-.33.7-.67,1-1s.56-.23.86-.39c.77-.41,2,.13,2.78.31s1.91-.67,2.6-.88a14.94,14.94,0,0,1,2.38-.57c.53-.07,1.06-.18,1.58-.27a1,1,0,0,1,.46,0,3.25,3.25,0,0,0,1.59,0c.39-.07.61-.21.82.17s.24.9.91.77c.29-.06.51.16.79.08L25,8.44l2.41-.69c.84-.24,1.68-.5,2.53-.72a1.55,1.55,0,0,0,.84-.53,1.31,1.31,0,0,1,.75-.36c.51-.12,1-.3,1.52-.43s.55,0,.66.39.56,1.33.24,1.61a6.29,6.29,0,0,1-2.19.61.7.7,0,0,1-.51,0,.57.57,0,0,0-.43,0L28.39,9l-1.09.32c-1.23.36-2.46.75-3.7,1.08a1.9,1.9,0,0,0-.89,1.05,2.35,2.35,0,0,1-.3.84c-.24.54.19.53.58.41.79-.23,1.59-.45,2.39-.68l1.91-.55,1-.29-1.65,2.33s-.95.25-1.77.52-1.65.45-2.46.74c-.27.09-.23.44-.47.59-.43.27-.29.09-.43.57L21.22,17c-.1.36-.53.38-.83.46l-.12,0-.61-6-2.6,16.1L13.55,17.21,15.2,30Zm23.18,6.74H23.41l4.53-9.74c.28,0,.57,0,.85-.08a.77.77,0,0,1,.65.19c.34.3.71.58,1,.91a10.52,10.52,0,0,1,1.78,2.27,1.16,1.16,0,0,1,.15.82.58.58,0,0,0,.31.68,4.32,4.32,0,0,1,.47.35.43.43,0,0,0,.37.12c.32-.07.37.53.37.72,0,.35.19,1.1-.3,1.15l-1.48.14c-.26,0-.94.24-1.1-.09s-.36-.23-.58-.22-.13.09-.15.18c-.08.31-.08.31-.4.34l-1,.08c-.2,0-.25,0-.28-.22s-.06-.42-.11-.63.22-.61.23-.88.24-.28.44-.42c.37-.26-.41-.6-.82-.78-1.9.28-2.72,2.94.1,3.83C28.88,31.44,33.87,32.21,33.78,32.62Zm-20.1,0H4.34c1-.26,6.43-1.68,4.42-3.28-1.07-.85.08-2.3,1.44-2.64Z" fill-rule="evenodd"></path></svg>