<svg xmlns="http://www.w3.org/2000/svg" class="HeroAbility-icon HeroAbility-icon--hoverState" viewBox="0 0 40 40" preserveAspectRatio="xMidYMid meet"><path fill="#c0726e" d="M20.92,9c.16.06.35-.2.9-.4A10.61,10.61,0,0,0,23.74,8c.43-.27-.09-.28-.41-.48s-.16-.84-.19-1.17-.19.13-.29.08-.28.24-.65.62-.89,1-1.53,1.61C20.53,8.79,20.76,8.92,20.92,9Z"></path><path fill="#c0726e" d="M21.84,13.05a4.34,4.34,0,0,0,2.71.83c1,0,1.8-1.09,2.34-2.41s.21-.94-.15-.61a2.86,2.86,0,0,1-1.65.76c-.64,0-1.07-.46-1.6-.94s-1.2,0-1.37.16a13.55,13.55,0,0,1-1.17.77l-.39.21C20.17,12,21,12.44,21.84,13.05Z"></path><path fill="#c0726e" d="M26.25,24.07c2.44.33,2.18.82,2.56.2a17.42,17.42,0,0,1,1.4-1.76c.25-.25.57-.67.57-2.07s-2.17-3.57-2.33-3.75-.19-.16.4-.8a8.07,8.07,0,0,0,1.29-2.45c.22-.63,0-.38-1-.38a6.37,6.37,0,0,1-2-.06c-.18-.14-.19-.94-.46-.09s-1.58,1.4-2.75,1.4a4.21,4.21,0,0,1-1.88-.37c-.37-.12.3.78.51,1.08s.16.29.1.46-.17-.1-.44-.43-.77-.94-1.12-1.41-.88-.31-1.14-.31-.8-.15-1.14.31S18,14.71,17.74,15s-.37.6-.44.43-.12-.16.1-.46.89-1.19.51-1.08a4.21,4.21,0,0,1-1.88.37c-1.17,0-2.48-.55-2.75-1.4s-.28,0-.46.09a6.37,6.37,0,0,1-1.91.06c-1,0-1.25-.25-1,.38a8.07,8.07,0,0,0,1.29,2.45c.59.65.57.62.4.8S9.23,19,9.23,20.43s.32,1.82.57,2.07a17.42,17.42,0,0,1,1.4,1.76c.38.62.11.14,2.56-.2s3.34-.07,3.67.06.39.21,1-.23A3.56,3.56,0,0,0,20,21.55a3.56,3.56,0,0,0,1.63,2.35c.55.44.62.36,1,.23S23.81,23.73,26.25,24.07Z"></path><path fill="#c0726e" d="M27.63,26.82c.11-.3.41-1,.58-1.45s.16-.35-.28-.43-1.18-.3-2.06-.5a8.56,8.56,0,0,0-3,.26c-.42.11.86,1,1.32,1.39A6.91,6.91,0,0,0,27,27C27.45,27.13,27.52,27.12,27.63,26.82Z"></path><path fill="#c0726e" d="M32.74,30.41c-.13-.26-1-2.23-1.29-2.78-.17-.36-.37-.46-.85-.5a2,2,0,0,0-.13-.48c-.2-.52-.33-.42-.69-.15a3.79,3.79,0,0,0-.66.6,4,4,0,0,0-.53.06c.31-.69,1.16-1.25,1.78-1.86s.22-1.18,0-1.63-.48,0-1.13.76a9.63,9.63,0,0,0-1.31,2.92,3.85,3.85,0,0,0-.42.2,4.63,4.63,0,0,0-1.38-.29c-1-.14-.92.11-1,.48s.4.59,1,1a1.57,1.57,0,0,0-.3,1.42c.15.21,1,2.27,1.3,2.78s1.06,1.29,3.48.13S32.87,30.67,32.74,30.41Zm-4,.78c-.19.47-.57.17-1.32-.14s-1.11-.34-1-.88,1.06-.06,1.34.07,1.09.47.9.94Zm1.66-1c-.17.48-.57.19-1.32-.11s-1.12-.31-1-.85,1-.09,1.34,0,1.13.47,1,1Zm1.79-.3c-.23.46-.59.12-1.3-.26s-1.08-.43-.87-1,1.06,0,1.32.18,1.06.62.83,1.07Z"></path><path fill="#c0726e" d="M16.26,8a10.61,10.61,0,0,0,1.92.61c.55.2.74.46.9.4s.39-.2.25-.34C18.68,8,18.16,7.42,17.79,7s-.55-.67-.65-.62-.26-.41-.29-.08.13,1-.19,1.17S15.83,7.71,16.26,8Z"></path><path fill="#c0726e" d="M15.45,13.88a4.34,4.34,0,0,0,2.71-.83c.82-.62,1.67-1,1.28-1.22l-.44-.2A11.43,11.43,0,0,1,18,11a3.06,3.06,0,0,0,.63-.39c.19-.19.2-.17.2-.36V9.6c0-.19.08-.12-.13-.36a4,4,0,0,0-1.52-.57,1.55,1.55,0,0,0-1,.17c-.48.17-.38.7-.39.9a4.11,4.11,0,0,0,.06.69c0,.14.29.29.48.39-.47.44-.88.84-1.47.81a2.86,2.86,0,0,1-1.65-.76c-.36-.33-.69-.71-.15.61S14.46,13.88,15.45,13.88Zm2.67-4a.33.33,0,1,1-.33.33h0a.33.33,0,0,1,.28-.38h.05Zm-2-.24a.52.52,0,1,1,.52.52h0a.52.52,0,0,1-.52-.57Z"></path><path fill="#c0726e" d="M17.09,24.69a8.56,8.56,0,0,0-3-.26c-.88.2-1.63.42-2.06.5s-.44,0-.28.43.48,1.16.58,1.45.17.31.6.2a6.91,6.91,0,0,0,2.79-.93C16.23,25.74,17.51,24.8,17.09,24.69Z"></path><path fill="#c0726e" d="M13.86,27.25a4.63,4.63,0,0,0-1.38.29,3.85,3.85,0,0,0-.42-.2,9.63,9.63,0,0,0-1.31-2.92c-.65-.72-.94-1.21-1.13-.76s-.61,1,0,1.63,1.48,1.17,1.78,1.86a4,4,0,0,0-.53-.06,3.79,3.79,0,0,0-.66-.6c-.35-.28-.49-.37-.69.15a2,2,0,0,0-.13.48.8.8,0,0,0-.85.5c-.26.56-1.16,2.52-1.29,2.78s-.32,1.45,2.1,2.6,3.23.38,3.48-.13,1.14-2.56,1.3-2.78a1.57,1.57,0,0,0-.3-1.42c.59-.36,1-.68,1-1S14.81,27.11,13.86,27.25ZM9.13,29.63c-.71.38-1.08.71-1.3.26s.43-.8.85-1,1.11-.71,1.32-.18S9.85,29.25,9.13,29.63Zm.49.55c-.17-.48.52-.74,1-.93.28-.12,1.19-.58,1.34,0s-.22.56-1,.85S9.8,30.66,9.62,30.18Zm3,.86c-.74.32-1.13.62-1.32.14s.5-.75.93-1c.28-.13,1.17-.61,1.34-.07s-.22.62-1,.89Z"></path></svg>