<svg xmlns="http://www.w3.org/2000/svg" class="HeroAbility-icon HeroAbility-icon--hoverState" viewBox="0 0 40 40" preserveAspectRatio="xMidYMid meet"><path fill="#697794" d="M30.42,21.54l-1-1.33h-.06c-.17.49-.41.94-.55,1.44.32-1.9-1.47-2.11-2.73-1.44A20,20,0,0,1,20,21.35a20,20,0,0,1-6.09-1.13c-1-.55-2.45-.5-2.72.62A4.07,4.07,0,0,1,11.73,18a2.35,2.35,0,0,0,.5-.83s-.07-.56-.07-.55c.28-.64.46.2.71-.1.42-.5,1.35-3.82,1.55-3.17.1.32,0,.4.16.66.3.51,1-.57,1.3-.83s2.31-1.37,2.5-1.14-.68,1.81-.12,1.85c.05,0,1.15-.86,1.28-.92a7.7,7.7,0,0,1,2.17-.46c.35-.05,1-.47,1,0,0,.26-.88.84-.66,1.11a12.9,12.9,0,0,0,1.33-.38,9.72,9.72,0,0,1,2.85-.06c.73.15.78,1.07.94,1.71a9.17,9.17,0,0,0,.24,1.34c.25.07.38-.42.62-.28,0,0,.05,1.26.14,1.44.29.64,1.27,1.77,1.2,2.42-.06-.31.27-1,.24-1.32-.06-.83,0-.65.56-1.12.33-.3-.7-3.2-1.43-4.07-.36-.43-.87-.72-1-1.3s.19-1,.41-1.6a8.3,8.3,0,0,1-1.83.09c-.8-.14-.66-1.2-1.62-1.8A11,11,0,0,1,23,7.53C22.75,7.3,22.14,6,21.85,6a4.62,4.62,0,0,0-.15,2.13c0,.44.23,1.25-.51,1A17.92,17.92,0,0,0,17.49,8,4.59,4.59,0,0,1,15.77,7c-.32-.29-.43-.67-.62-.19a3.4,3.4,0,0,0,.23,1.51c.08.31.47.9.35,1.17s-1.7.47-2,.51a4,4,0,0,1-2.3-.26s-.3-.19-.2-.1c-.08-.07-.17-.32-.27-.35-.25-.07.27,1.14.3,1.19a5.43,5.43,0,0,0,.79,1.13c.14.14-.38.68-.72,2a6,6,0,0,1-.87,1.85c-.17.26-1,.91-1,1.24s.62.43.78.75a1.52,1.52,0,0,1,0,1.11c-.1.39-.32.29-.26.77a3.29,3.29,0,0,0,.45.95c-.32.44-.62.91-1,1.32v.06c.35,1.66.12,3.48.92,5,1,1.8,2.16,3.49,3.25,5.21h0a10.06,10.06,0,0,0-.22-2.28,20,20,0,0,0-1.36-2.36,4.91,4.91,0,0,1-.35-2.1c-.06-.78-.33-2.26-.46-3l0-.24a6.23,6.23,0,0,0,.63,1.51c.83,1.5,3.29,3.74,4.53,2.85.47-.34,1.91-1.84,3.61-1.84s3.14,1.51,3.61,1.84c1.24.89,3.69-1.35,4.53-2.85a6.09,6.09,0,0,0,.65-1.59l-.05.27c-.15.91-.35,1.82-.45,2.73A8.28,8.28,0,0,1,28,27.06c-.35.89-1.14,1.62-1.45,2.52a10.42,10.42,0,0,0-.26,2.34h0c1.1-1.72,2.6-3.94,3.51-5.77a19.71,19.71,0,0,0,.67-4.43v-.06A.7.7,0,0,1,30.42,21.54Z"></path></svg>