<svg xmlns="http://www.w3.org/2000/svg" class="HeroAbility-icon HeroAbility-icon--hoverState" viewBox="0 0 40 40" preserveAspectRatio="xMidYMid meet"><g id="brigitte-2" data-name="brigitte"><path fill="#be736e" d="M22.28,24.12l.84.52a.21.21,0,0,1,.06.12A15.36,15.36,0,0,0,23.86,27c.18.47.41.91.62,1.37a.24.24,0,0,1,0,.27c-.19.27-.36.55-.56.82a.27.27,0,0,1-.2.09,1.15,1.15,0,0,1-.37-.06c-.15,0-.22,0-.31.11a8.93,8.93,0,0,1-1.72,1.79,4.41,4.41,0,0,1-.65.36.17.17,0,0,1-.15,0,.92.92,0,0,0-.67-.19H15.53a.54.54,0,0,0-.28.14.28.28,0,0,1-.31,0,2.91,2.91,0,0,1-1-.72c-.45-.47-.87-1-1.3-1.47a.17.17,0,0,0-.19-.07l-.47.08a.19.19,0,0,1-.14-.06,4.14,4.14,0,0,1-.92-1.74A2.1,2.1,0,0,1,11.2,26a5.85,5.85,0,0,1,2.17-1.86h0c.07.18.13.36.21.53a11.28,11.28,0,0,0,.55,1.1,3.33,3.33,0,0,0,.48.57A13.8,13.8,0,0,0,16.35,28a2.91,2.91,0,0,0,1.29.55,1.16,1.16,0,0,0,.36,0,3.15,3.15,0,0,0,1.55-.77,14.61,14.61,0,0,0,1.88-1.88,1.22,1.22,0,0,0,.14-.25l.5-1A2.06,2.06,0,0,0,22.28,24.12Z"></path><path fill="#be736e" d="M11.67,34.51a11.37,11.37,0,0,1-2.6-1,5.11,5.11,0,0,0,.55.7H9.56A8.58,8.58,0,0,1,8,33.12,3.35,3.35,0,0,1,6.89,31a7.08,7.08,0,0,1,.42-3.48A3.85,3.85,0,0,1,8.3,26c.36-.32.71-.64,1.05-1s.8-.75,1.19-1.14a6.63,6.63,0,0,0,.68-.73,3.44,3.44,0,0,0,.69-2v-1A.21.21,0,0,0,11.8,20c-.16-.09-.17-.25-.22-.39a10.52,10.52,0,0,1-.37-1.69.19.19,0,0,1,0-.09c.07-.19.14-.39.22-.58s.16-.17.28,0l.15.11V17c0-.4.05-.81.09-1.21a6.61,6.61,0,0,1,.13-.7.22.22,0,0,1,.1-.13c.24-.13.47-.27.72-.39a.72.72,0,0,0,.3-.28c.21-.34.45-.67.68-1a2.19,2.19,0,0,1,.29-.26.31.31,0,0,0,.09-.12,6,6,0,0,1,.79-1.55h0c-.24-.26-.48-.5-.7-.77a10,10,0,0,1-.72-1,1.35,1.35,0,0,1-.25-.68.29.29,0,0,1,.06-.2A6.66,6.66,0,0,1,16,6.93c.33-.13.66-.23,1-.35a.23.23,0,0,0,.09-.06,5.72,5.72,0,0,1,1.18-1,2.06,2.06,0,0,1,1-.31,8.68,8.68,0,0,1,3.21.22,11.16,11.16,0,0,1,3.1,1.49A11.28,11.28,0,0,1,27.11,8.1a20.09,20.09,0,0,1,2.56,3.12.26.26,0,0,1,0,.11A9.51,9.51,0,0,0,26.81,10h0l.09.08A6.77,6.77,0,0,1,28,11.32a10,10,0,0,1,1.08,1.56A8.91,8.91,0,0,1,30,15.2a12,12,0,0,1,.15,1.37,17.7,17.7,0,0,0,.63,4,22.78,22.78,0,0,0,1,2.45l-.59-.6-.57-.64L30,21.12c-.18-.22-.36-.44-.53-.67s-.33-.46-.49-.7-.3-.48-.47-.71a3,3,0,0,0,.11.43c.23.55.45,1.11.7,1.65a8.43,8.43,0,0,0,2,2.65A8.77,8.77,0,0,0,35,25.69a.33.33,0,0,1,.14.07l-.46.08A4,4,0,0,1,33,25.71a11.64,11.64,0,0,1-1.61-.48,13.43,13.43,0,0,1-1.71-.9A18.54,18.54,0,0,1,26.81,22a11.68,11.68,0,0,1-2-2.46c-.11-.18-.22-.35-.31-.53a.5.5,0,0,1,0-.24,4.17,4.17,0,0,1,.07-.93.3.3,0,0,0,0-.15l-.42-.76a.54.54,0,0,1-.06-.22v-1a.41.41,0,0,0-.16-.35l-1-.82a.69.69,0,0,1-.11-.14c-.18-.27-.35-.55-.55-.81a4.17,4.17,0,0,0-.41-.42h0l.88,1.5a.94.94,0,0,0,.16.19l.72.69a.61.61,0,0,1,.18.48v1c.16-.06.19,0,.26.12a4.4,4.4,0,0,1,.23.6.89.89,0,0,1,0,.33,8.17,8.17,0,0,1-.4,1.68v.07c-.22.19-.13.44-.11.66A10.47,10.47,0,0,0,25.17,25a12.16,12.16,0,0,0,1.24,1.68,8.93,8.93,0,0,1,1.18,1.86A4.7,4.7,0,0,1,28,29.86c0,.34.09.69.12,1a1,1,0,0,1,0,.22,3.9,3.9,0,0,0-.84-1.27l.17.58a5.63,5.63,0,0,1,.2,2.37,2,2,0,0,1-1,1.53,3.94,3.94,0,0,1-2.8.63,1.2,1.2,0,0,1-.3-.1A2.8,2.8,0,0,0,25,34.21a2,2,0,0,1-1.83,0,4.54,4.54,0,0,0,.54-.1,3.08,3.08,0,0,0,.57-.24c.21-.11.4-.26.6-.38a2.2,2.2,0,0,0,.8-1.07,3.12,3.12,0,0,0,.09-2.24,3.8,3.8,0,0,0-.45-.91,13.75,13.75,0,0,1-1.7-3.94A29.47,29.47,0,0,1,23,22c0-.31-.07-.62-.1-.93v-.16a1.16,1.16,0,0,1-.29.39.54.54,0,0,1,0-.09V19.47a2.76,2.76,0,0,0-.13-1.1l-.35.64-.64-1.6-.72.28-.26.1c-.17,0-.18,0-.18-.13V17l-.47.32a4.71,4.71,0,0,0-.41.35c-.13.12-.17.15-.33,0l-.53-.47A3.52,3.52,0,0,0,18,18.5c-.28-.12-.55-.22-.81-.36-.72-.38-1.42-.78-2.13-1.17H15c-.23-.12-.28-.1-.32.15s-.07.5-.1.77l-.32-.1-.6-.26c-.16-.06-.18,0-.22.11l-.3,1.2a.47.47,0,0,0,0,.12V21l-.33-.29v.44a6.59,6.59,0,0,1-1.26,3.48c-.31.46-.69.88-1,1.34a13.92,13.92,0,0,0-.9,1.44A8.08,8.08,0,0,0,9,29.27,6.26,6.26,0,0,0,8.7,31a3.13,3.13,0,0,0,.49,1.51,5.06,5.06,0,0,0,2.19,1.91Zm8.63-22.3a2.32,2.32,0,0,0-.16-.26c-.35-.44-.7-.88-1.07-1.3s-.7-.72-1.06-1.06c-.18-.17-.22-.17-.4,0a9,9,0,0,0-.74.67c-.44.46-.85.95-1.27,1.42a.48.48,0,0,0,0,.11,4.45,4.45,0,0,0,.4-.29c.2-.18.38-.4.6-.57s.69-.52,1-.77a.27.27,0,0,1,.36,0c.12.09.25.16.36.26A11.38,11.38,0,0,1,19.8,11.9.7.7,0,0,0,20.3,12.21Zm-8.06,7.53q.07-.19.13-.39a.82.82,0,0,0,0-.29c-.05-.38-.4-.56-.6-.86a.74.74,0,0,0-.1.53,3.83,3.83,0,0,0,.16.58.59.59,0,0,0,.4.43Zm10.91,0h0c.1-.1.25-.18.3-.3a4.54,4.54,0,0,0,.21-.73.71.71,0,0,0-.1-.51,6.5,6.5,0,0,0-.53.61.69.69,0,0,0-.1.43,2.2,2.2,0,0,0,.22.49Z"></path></g></svg>