<svg xmlns="http://www.w3.org/2000/svg" class="HeroAbility-icon HeroAbility-icon--hoverState" viewBox="0 0 40 40" preserveAspectRatio="xMidYMid meet"><path fill="#be736e" d="M22.51,22.55l.58-2.22a.63.63,0,0,0-.61-.76H20.63a.51.51,0,0,0-.5.38l-.68,2.61H16.87a.51.51,0,0,0-.5.38l-.5,1.91a.63.63,0,0,0,.61.76h2.18l-.58,2.23a.63.63,0,0,0,.61.76h1.84a.51.51,0,0,0,.5-.38l.68-2.61H24.3a.51.51,0,0,0,.5-.38l.5-1.91a.63.63,0,0,0-.61-.76Zm-17,10.26,12.62-3,2.8,0,12,3-7.44-3.7,7.1-1.77-5.87-.34,9.09-4.72-9.46.45,8.2-7-9.15,4.4,4.5-10L24.22,18,25,4.78,19.42,18.09l-3.64-9.3,2.09,11.15-5.25-4.29,2.6,4.47L6.84,15.95,14.1,23l-9.42-.5L13.4,27l-7.32.65L14,28.7Z" fill-rule="evenodd"></path></svg>