<svg xmlns="http://www.w3.org/2000/svg" class="HeroAbility-icon HeroAbility-icon--hoverState" viewBox="0 0 40 40" preserveAspectRatio="xMidYMid meet"><path fill="#8ebccc" d="M19.95,8.74c-.4,0-2.61.16-2.83.21s.07.28-.25.4a8.44,8.44,0,0,0-5.49,4.46h0c-.28-.4-1-1.18-1.34-1.08s-.49-.05-.74-.36-1-1.65-1.25-2-.54.1-1,.65.26,3,.72,5.55A54.36,54.36,0,0,0,9,21.87c.14.4.25.71.09.85a1.35,1.35,0,0,0-.21,1.08l1.84,4.33c.43,1,1,.87,1.25.87s.22-.22.56-.49.7.28,1,.35.46-.39.62-.73c.25-.53-1.15-.85-2.24-4.3a12.85,12.85,0,0,1-.57-7.27c.05-.48.11-1,.15-1.42a7.4,7.4,0,0,1,5.91-4.86,3.52,3.52,0,0,1,1.35,0c.18,0,.46,1.05.46,1.71s.13.66.25.66h.48S19.94,9.53,19.95,8.74Z"></path><path fill="#8ebccc" d="M19.58,17.74c.09.11.29.47.36.4.08.08.27-.28.36-.4a5.92,5.92,0,0,1,1.08-.38,5.83,5.83,0,0,0,.85-1.46,33,33,0,0,0-1.75-2.81c-.14-.21-.28-.14-.54-.14s-.4-.07-.54.14a33,33,0,0,0-1.75,2.81,5.83,5.83,0,0,0,.85,1.46A5.92,5.92,0,0,1,19.58,17.74Z"></path><path fill="#8ebccc" d="M32.13,16.54c.46-2.53,1.18-5,.72-5.55s-.72-1-1-.65-1,1.73-1.25,2-.35.47-.74.36-1.06.69-1.34,1.08h0A8.44,8.44,0,0,0,23,9.36c-.32-.12,0-.35-.25-.4s-2.43-.21-2.83-.21c0,.78,0,3.88,0,3.88h.48c.13,0,.25,0,.25-.66s.28-1.68.46-1.71a3.52,3.52,0,0,1,1.35,0,7.4,7.4,0,0,1,5.91,4.86c0,.44.1.95.15,1.42A12.85,12.85,0,0,1,28,23.83c-1.08,3.45-2.48,3.76-2.24,4.3.16.34.33.8.62.73s.64-.62,1-.35.36.49.56.49.82.15,1.25-.87L31,23.8a1.35,1.35,0,0,0-.21-1.08c-.16-.13,0-.44.09-.85A54.36,54.36,0,0,0,32.13,16.54Z"></path><path fill="#8ebccc" d="M26.44,25.39c1.08-1.15,1.69-3.8,1.66-6.54s-1.34-1.3-2.74-.64a16.44,16.44,0,0,1-5.41,1.27,16.44,16.44,0,0,1-5.41-1.27c-1.41-.66-2.72-2.11-2.74.64s.58,5.4,1.66,6.54,1.41,1.13,2.09.78a7.25,7.25,0,0,1,4.41-1.68,7.25,7.25,0,0,1,4.41,1.68C25,26.52,25.37,26.54,26.44,25.39Z"></path></svg>