<svg xmlns="http://www.w3.org/2000/svg" class="HeroAbility-icon HeroAbility-icon--hoverState" viewBox="0 0 40 40" preserveAspectRatio="xMidYMid meet"><g id="_Group_" data-name="&lt;Group&gt;"><g id="_Group_2" data-name="&lt;Group&gt;"><g id="_Group_3" data-name="&lt;Group&gt;"><g id="_Group_4" data-name="&lt;Group&gt;"><path fill="#e77eb6" d="M15,19.62H13.12a10.3,10.3,0,0,1-.88-1.87c.29-.7.79-1.24,1.1-1.92a5.29,5.29,0,0,1,2-.23,6.76,6.76,0,0,1,1,1.81A14.23,14.23,0,0,1,15,19.62Z"></path></g><g id="_Group_5" data-name="&lt;Group&gt;"><path fill="#e77eb6" d="M23.52,17.21c.34-.57.62-1,.89-1.48a.4.4,0,0,1,.32-.24,8.53,8.53,0,0,1,1.59.11.84.84,0,0,1,.68.55c.24.54.67,1,.9,1.55a6.2,6.2,0,0,1-.38,1,8.76,8.76,0,0,1-.46,1c-.71,0-1.44,0-2.22,0A19.66,19.66,0,0,1,23.52,17.21Z"></path></g><g id="_Group_6" data-name="&lt;Group&gt;"><path fill="#e77eb6" d="M20.17,11.9H18.85a.61.61,0,0,0-.54.25L17,14a.62.62,0,0,0,0,.76c.38.65.75,1.31,1.18,1.92a18.05,18.05,0,0,0,3.79.06c.56-.64.87-1.48,1.48-2.1a.71.71,0,0,0-.15-.64q-.52-.68-1-1.37h0l0,0h0l-.24-.34a.72.72,0,0,0-.65-.33H20.17Z"></path></g><g id="_Group_7" data-name="&lt;Group&gt;"><path fill="#e77eb6" d="M30.7,22.26a.8.8,0,0,1-1,.35c-.32-.53-.43-1.14-.71-1.71.39-.5.34-1.22.86-1.65l.82.17A3.43,3.43,0,0,1,31.14,21c0,.32-.23.58-.31.89C30.8,22,30.72,22.15,30.7,22.26Z"></path></g><g id="_Group_8" data-name="&lt;Group&gt;"><path fill="#e77eb6" d="M10.27,23c-.79,0-1-.11-1.2-.85a4.23,4.23,0,0,0-.33-.83.81.81,0,0,1,0-.75,8.43,8.43,0,0,0,.37-1.11.43.43,0,0,1,.37-.35l.75-.15a1,1,0,0,1,.32.26A9.77,9.77,0,0,0,11,20.56a1,1,0,0,1,0,.68c-.12.49-.4.93-.51,1.43C10.52,22.8,10.4,22.88,10.27,23Z"></path></g><g id="_Group_9" data-name="&lt;Group&gt;"><path fill="#e77eb6" d="M14,10.82c.74-.23,1.44-.29,2.13-.44a.67.67,0,0,1,.66.17,7.48,7.48,0,0,1,.57.53,1,1,0,0,1-.18.76c-.37.52-.72,1-1.12,1.54a1.29,1.29,0,0,1-1.08.5,5.32,5.32,0,0,1-1.09,0c-.23,0-.35.25-.61.24-.62-.29-.64-.94-.75-1.54,0-.21.13-.35.27-.48A10.88,10.88,0,0,0,14,10.82Z"></path></g><g id="_Group_10" data-name="&lt;Group&gt;"><path fill="#e77eb6" d="M22.65,11.34a3.73,3.73,0,0,0,.71,1.2h0l0,0a5.07,5.07,0,0,1,.64.95,1.87,1.87,0,0,0,1.13.36,2.57,2.57,0,0,1,1.51.28A1.37,1.37,0,0,0,27.11,12a4.68,4.68,0,0,1-1-1.19c-.81-.28-1.64-.29-2.46-.55A1.56,1.56,0,0,0,22.65,11.34Z"></path></g><g id="_Group_11" data-name="&lt;Group&gt;"><path fill="#e77eb6" d="M17.66,9.94l.08.13a10.71,10.71,0,0,0,1.12,1h2.68a.79.79,0,0,0,.26-.09l.71-1a1.79,1.79,0,0,0-1.25-1.13c-.86,0-1.72,0-2.57,0A4.74,4.74,0,0,0,17.66,9.94Z"></path></g><g id="_Group_12" data-name="&lt;Group&gt;"><path fill="#e77eb6" d="M9.63,17.39a1.44,1.44,0,0,1-.44-1.45,6.17,6.17,0,0,1,.9-1.71,1.53,1.53,0,0,1,1.28-.59,1.24,1.24,0,0,1,.26,1.51c-.36.72-.8,1.4-1.2,2.1C10.17,17.38,9.88,17.24,9.63,17.39Z"></path></g><g id="_Group_13" data-name="&lt;Group&gt;"><path fill="#e77eb6" d="M28.5,13.72a1.5,1.5,0,0,1,1.61.8c.18.35.4.67.57,1a1.75,1.75,0,0,1-.1,1.72,6.24,6.24,0,0,1-.81,0c-.44-.28-.59-.78-.84-1.18s-.34-.76-.56-1.11a.73.73,0,0,1,0-.88A1.69,1.69,0,0,0,28.5,13.72Z"></path></g></g><g id="_Group_14" data-name="&lt;Group&gt;"><path fill="#e77eb6" id="_Path_" data-name="&lt;Path&gt;" d="M30.11,14.53c.18.35.4.67.57,1a1.93,1.93,0,0,1,.09.21,1.93,1.93,0,0,0-.09-.21C30.5,15.19,30.29,14.87,30.11,14.53Z"></path><path fill="#e77eb6" id="_Path_2" data-name="&lt;Path&gt;" d="M30.85,16.17s0-.09,0-.13S30.85,16.13,30.85,16.17Z"></path><path fill="#e77eb6" id="_Path_3" data-name="&lt;Path&gt;" d="M9.51,15.19a6,6,0,0,1,.34-.6h0a6,6,0,0,0-.34.6Z"></path><path fill="#e77eb6" id="_Path_4" data-name="&lt;Path&gt;" d="M30.82,16l0-.14Z"></path><path fill="#e77eb6" id="_Path_5" data-name="&lt;Path&gt;" d="M30.86,16.25s0,.07,0,.1,0,0,0-.06S30.86,16.26,30.86,16.25Z"></path><path fill="#e77eb6" id="_Path_6" data-name="&lt;Path&gt;" d="M6.6,19.52a13.22,13.22,0,0,0,.58,3.86c.47.33.76,0,.93-.62A5.8,5.8,0,0,0,8.26,22a2.25,2.25,0,0,0-.16-.36,1.51,1.51,0,0,1-.21-.76A1.77,1.77,0,0,1,8,20.28L8.1,20a5.69,5.69,0,0,0,.23-.69v-.1a.5.5,0,0,1,.14-.37,11.48,11.48,0,0,1,.19-1.51,2.29,2.29,0,0,1-.27-1.07h0a1.79,1.79,0,0,1,.09-.59,6.88,6.88,0,0,1,1-1.91,2.24,2.24,0,0,1,1.57-.87,11.7,11.7,0,0,1,.86-.88,1.73,1.73,0,0,1,.34-.41l0,0a10,10,0,0,0,1.13-1.23l.14-.19.23-.07a10.93,10.93,0,0,1,1.48-.32l.37-.07a11.7,11.7,0,0,1,1.62-.5,6.16,6.16,0,0,1,1-.94l.21-.17h2.85A2.38,2.38,0,0,1,23,9.35l.59.18.23.07a8.26,8.26,0,0,0,1.06.23,8.43,8.43,0,0,1,1.43.33l.3.1.13.29a2.47,2.47,0,0,0,.57.67l.31.31a2,2,0,0,1,.42.69c.24.23.48.48.7.74a2.26,2.26,0,0,1,2,1.23c.07.14.16.29.25.44s.22.38.33.59a2.4,2.4,0,0,1,.26,1.07,2.78,2.78,0,0,1-.37,1.32l-.07.12q.08.53.12,1.07a3.53,3.53,0,0,1,.09.39,4,4,0,0,1,.5,1.82,1.87,1.87,0,0,1-.24.84,1.38,1.38,0,0,0-.09.21,1.9,1.9,0,0,1-.1.29l0,.06,0,.11-.07.11h0a1.54,1.54,0,0,0,.09.47.77.77,0,0,0,1.13.44,13,13,0,0,0,.43-1.7A13.29,13.29,0,1,0,6.6,19.52Z"></path><path fill="#e77eb6" id="_Path_7" data-name="&lt;Path&gt;" d="M28.78,27.21a1.38,1.38,0,0,1-.17.67l.74.46A1.69,1.69,0,0,1,30.1,28a13.36,13.36,0,0,0,1.6-2.43,2.92,2.92,0,0,1,0-.55h0a5,5,0,0,0-.79-.46,2.52,2.52,0,0,1-.65.47A12.7,12.7,0,0,1,28.78,27.21Z"></path><path fill="#e77eb6" id="_Path_8" data-name="&lt;Path&gt;" d="M27,29.09l-.54.47a.89.89,0,0,0-.1.45c0,.75.5.67,1,.46.3-.21.59-.42.88-.65l.19-.15.06-.13L28,29A2,2,0,0,1,27,29.09Z"></path><path fill="#e77eb6" id="_Path_9" data-name="&lt;Path&gt;" d="M10.17,27.45l0,0c.32-.26.12-.69-.06-1.05l-.05-.1a.53.53,0,0,1,0-.4c-.11-.22-.21-.43-.32-.65a3.44,3.44,0,0,0-1-.15c-.57,0-.48.62-.3,1.07s.42.69.65,1,.63.53,1,.38A.74.74,0,0,0,10.17,27.45Z"></path><path fill="#e77eb6" id="_Path_10" data-name="&lt;Path&gt;" d="M12.89,30a1,1,0,0,0,0-.16l-.14-.15c-.3-.32-.6-.66-.89-1-.44-.12-.87-.21-1-.05a1,1,0,0,0-.06.65,13.37,13.37,0,0,0,1.34,1.1l.06,0a1.08,1.08,0,0,0,.36,0Z"></path></g></g><g id="_Group_15" data-name="&lt;Group&gt;"><g id="_Group_16" data-name="&lt;Group&gt;"><rect fill="#e77eb6" id="_Path_11" data-name="&lt;Path&gt;" x="18.75" y="29.41" width="2.67" height="1.34"></rect><path fill="#e77eb6" id="_Path_12" data-name="&lt;Path&gt;" d="M21.42,22.19a2.41,2.41,0,0,0,0-.25,2.62,2.62,0,0,0-1.33-2.14,2.62,2.62,0,0,0-1.33,2.14,2.41,2.41,0,0,0,0,.25v6.28h2.67Z"></path></g><g id="_Group_17" data-name="&lt;Group&gt;"><rect fill="#e77eb6" id="_Path_13" data-name="&lt;Path&gt;" x="14.72" y="31.74" width="2.67" height="1.34"></rect><path fill="#e77eb6" id="_Path_14" data-name="&lt;Path&gt;" d="M17.39,24.52a2.41,2.41,0,0,0,0-.25,2.62,2.62,0,0,0-1.33-2.14,2.62,2.62,0,0,0-1.33,2.14,2.41,2.41,0,0,0,0,.25v6.28h2.67Z"></path></g><g id="_Group_18" data-name="&lt;Group&gt;"><rect fill="#e77eb6" id="_Path_15" data-name="&lt;Path&gt;" x="22.8" y="31.74" width="2.67" height="1.34"></rect><path fill="#e77eb6" id="_Path_16" data-name="&lt;Path&gt;" d="M25.47,24.52a2.41,2.41,0,0,0,0-.25,2.62,2.62,0,0,0-1.33-2.14,2.62,2.62,0,0,0-1.33,2.14,2.41,2.41,0,0,0,0,.25v6.28h2.67Z"></path></g></g></g></svg>