<svg xmlns="http://www.w3.org/2000/svg" class="HeroAbility-icon HeroAbility-icon--hoverState" viewBox="0 0 40 40" preserveAspectRatio="xMidYMid meet"><path fill="#e77eb6" d="M26.25,21.52c-.09.07-.17.19-.11.07a3.26,3.26,0,0,0,.16-.6c0-.2,0-.14-.16-.35a6.33,6.33,0,0,0-.85-.8c-.36-.33-.75,0-1,.47s-.05.63.25,1.13a5.92,5.92,0,0,1,.64,2.22,29.68,29.68,0,0,1-.16,3c0,1.12,1-.79,1.19-2a20.08,20.08,0,0,0,.24-2.91C26.42,21.35,26.34,21.45,26.25,21.52Z"></path><path fill="#e77eb6" d="M10.08,19.26a8.59,8.59,0,0,1-1.45-2c-.27-.4-.17.57-.14,1.11a9.1,9.1,0,0,0,0,1.12,5.49,5.49,0,0,1,.08,1.72,4.27,4.27,0,0,0-.08,1.58A21.33,21.33,0,0,0,9.45,26c.33.91.41,0,.35-.59a8.8,8.8,0,0,1,0-1.48c0-.44-.26-.37-.46-.4s-.12-.16.17-.07.29-.3.33-.69a6.5,6.5,0,0,1,.73-1.86C11.08,19.87,10.8,19.89,10.08,19.26Z"></path><path fill="#e77eb6" d="M31.75,13.12a22.5,22.5,0,0,1-2.56,1c-.72.24-.42,0,.61-.65s2.26-2.83,3-4.61.52-2.53.34-2.28-.91.86-3.17,2.91-6.46,1.76-7.19,1.76,1-.92,1.78-2.6-.85,0-2.28.48-1.78.08-4.23.31a9.36,9.36,0,0,0-5.14,2.53c-1.13.9-.16-1.35.62-2.66s.16-.89-1.54.38a6.83,6.83,0,0,0-2.9,4.25,14.73,14.73,0,0,0-.27,2c-.09.89.29,1.06.75,1.64A27.52,27.52,0,0,0,11.81,20c.61.54.44.12.27-.61a1.17,1.17,0,0,1,.3-1.23c.22-.33.64.67,1.25,1.42s2,1.9,3,1.8,3.24-1.82,3.67-2.16-.28.65-.65,1.17,0,.55.8.25a8,8,0,0,0,2.26-1.44c.38-.35.09.72.1,1.1s.28.3.83-.15a8.23,8.23,0,0,0,1.29-1.55c.14-.2.42.19.72.51a13.52,13.52,0,0,0,1,1.07,5.52,5.52,0,0,1,1.18,2.46c.34,1,.42.69.45.33a14.34,14.34,0,0,0,.19-2.34,4.57,4.57,0,0,0-1.07-3.08c-.46-.5-.2-.38,1.32-.74a6.78,6.78,0,0,0,3.85-3.33C33.57,11.84,32.39,12.78,31.75,13.12Z"></path><path fill="#e77eb6" d="M15.64,25.64c-.21-.19-.68-.73-1.13-1.24s-.36-.58-.21-.94.32-1.07.5-1.61.18-.39,0-.51-.27.11-.57.38-.91.71-1.25,1-.31.21-.72,0-.8-.43-1.2-.67-.26.23-.12.45l.75,1.27c.39.66.24.73.15,1.25s-.3,1.44-.63,3.17c-.21,1.09-.2,1.11-.09,1.2s.15-.19.31-.57,1.23-2.25,1.49-2.84.37-.47.74-.4,1.65.43,2,.52S15.85,25.83,15.64,25.64Z"></path></svg>