<svg xmlns="http://www.w3.org/2000/svg" class="HeroAbility-icon HeroAbility-icon--hoverState" viewBox="0 0 40 40" preserveAspectRatio="xMidYMid meet"><g id="_Group_2" data-name="&lt;Group&gt;"><path fill="#85c952" id="_Path_5" data-name="&lt;Path&gt;" d="M8.51,29.35A.59.59,0,0,1,8,29.1,10.89,10.89,0,0,1,6.81,20a18,18,0,0,1,5.49-8.59.82.82,0,0,1,1.13-.08.81.81,0,0,1-.21,1.11A15.82,15.82,0,0,0,8.38,20a9.59,9.59,0,0,0,1.05,8,.86.86,0,0,1-.32,1.11A1,1,0,0,1,8.51,29.35Z"></path><path fill="#85c952" id="_Path_6" data-name="&lt;Path&gt;" d="M26.62,29.24a.6.6,0,0,1-.48-.21.83.83,0,0,1,.26-1.11A15.87,15.87,0,0,0,31.62,20,9.83,9.83,0,0,0,31,12.81a.91.91,0,0,1,.42-1.1.72.72,0,0,1,1.07.13A11.16,11.16,0,0,1,33.19,20a18,18,0,0,1-5.92,9A1,1,0,0,1,26.62,29.24Z"></path><path fill="#85c952" id="_Path_7" data-name="&lt;Path&gt;" d="M11.73,28.17a.61.61,0,0,1-.45-.18,8.25,8.25,0,0,1-1.62-8,14.41,14.41,0,0,1,5.82-7.93.74.74,0,0,1,1.08.1.89.89,0,0,1-.39,1.11A12.23,12.23,0,0,0,11.22,20a7,7,0,0,0,1.38,6.77.8.8,0,0,1-.19,1.1A1,1,0,0,1,11.73,28.17Z"></path><path fill="#85c952" id="_Path_8" data-name="&lt;Path&gt;" d="M24.17,28a.58.58,0,0,1-.52-.27A.88.88,0,0,1,24,26.61,12.22,12.22,0,0,0,28.77,20a7.07,7.07,0,0,0-1.23-6.61.93.93,0,0,1,1.35-1.18A8.33,8.33,0,0,1,30.34,20a14.4,14.4,0,0,1-5.6,7.77A1,1,0,0,1,24.17,28Z"></path><path fill="#85c952" id="_Path_9" data-name="&lt;Path&gt;" d="M14.63,26.27a.62.62,0,0,1-.4-.13A5.76,5.76,0,0,1,12.61,20a10.43,10.43,0,0,1,4.9-6.13.69.69,0,0,1,1,.21,1,1,0,0,1-.5,1.09A8.21,8.21,0,0,0,14.18,20a4.53,4.53,0,0,0,1.27,4.83.75.75,0,0,1-.08,1.09A1.06,1.06,0,0,1,14.63,26.27Z"></path><path fill="#85c952" id="_Path_10" data-name="&lt;Path&gt;" d="M22.19,26.17a.58.58,0,0,1-.55-.33.93.93,0,0,1,.47-1.09A8.22,8.22,0,0,0,25.82,20a4.53,4.53,0,0,0-1.27-4.83.75.75,0,0,1,.08-1.09.88.88,0,0,1,1.15-.21A5.76,5.76,0,0,1,27.39,20a10.43,10.43,0,0,1-4.7,6A1,1,0,0,1,22.19,26.17Z"></path><path fill="#85c952" id="_Compound_Path_" data-name="&lt;Compound Path&gt;" d="M18.78,24.56A3.38,3.38,0,0,1,15.45,20a6.37,6.37,0,0,1,5.77-4.55A3.38,3.38,0,0,1,24.55,20,6.37,6.37,0,0,1,18.78,24.56Zm2-7.53A4.17,4.17,0,0,0,17,20a2.21,2.21,0,0,0,2.18,3A4.17,4.17,0,0,0,23,20,2.21,2.21,0,0,0,20.8,17Z"></path></g></svg>