<svg xmlns="http://www.w3.org/2000/svg" class="HeroAbility-icon HeroAbility-icon--hoverState" viewBox="0 0 40 40" preserveAspectRatio="xMidYMid meet"><g id="_Group_" data-name="&lt;Group&gt;"><path fill="#85c952" id="_Path_" data-name="&lt;Path&gt;" d="M33.87,20.95c-.59-.86-1.17-1.72-1.77-2.57s-.88-.86-1.71-.11a1.08,1.08,0,0,0-.14.15,1,1,0,0,1-.73.35c-.49,0-1,.11-1.47.11-1.05,0-1.44-.37-1.19-1.15.37-1.21,1.83-2.88,2.52-4a1.69,1.69,0,0,0,.24-.72c-.21-.06-.34,0-.49.06-.32,0-.43-.06-.44-.34a3,3,0,0,0-.57-1.88,9.59,9.59,0,0,0-2.69-2.08,4.53,4.53,0,0,1,1.39-.55L27,8.13a4.1,4.1,0,0,0-1.88-.49C22,7.41,14.72,9.32,12.49,13c-.47.79-.78,1.66-1.27,2.43-.55-.39-.33-1-.41-.86a22.92,22.92,0,0,0-3.44,12.2c-.92.15-1.28-.51-1.28-.35.06,2,2.26,4.29,4.75,4.93.4.1.54,0,.48-.3A11.82,11.82,0,0,1,11,29a1.14,1.14,0,0,1,.86-1.23c.68-.27,1.44-.62,2.17-.88.21-.07.38-.19.06-.36C13,26,13,25.22,13,24.16c0-1.76,3.1-12.19,10.24-12a3,3,0,0,1,2.32.77c.9,1.27-.26,3.42-1.06,4.71a5.72,5.72,0,0,0-.6,1.18c-.32,1,.14,1.52,1.41,1.76a8.76,8.76,0,0,0,2.43.26c-.32.28-.53.46-.72.65s-.35.28-.2.48.41.15.64.12c2-.23,4.1-.47,6.15-.68C34.1,21.36,34.06,21.22,33.87,20.95Z"></path><path fill="#85c952" id="_Path_2" data-name="&lt;Path&gt;" d="M12,29.6c-.18-1.12.38-1.53,1.49-2,.26-.15.58-.24.81-.35a3.46,3.46,0,0,1,2.08-.31c.1,0,.22,0,.24.11s-.1.15-.19.2c-.71.35-1.4.74-2.14,1-.57.24-.78.55-.68,1A20.53,20.53,0,0,0,14,31.57c.1.31,0,.4-.42.34-1.41-.2-1.32-.18-1.48-1.26C12.1,30.3,12,29.95,12,29.6Z"></path><path fill="#85c952" id="_Path_3" data-name="&lt;Path&gt;" d="M20.52,27.1c.08.2-.12.31-.31.39-.71.3-2.63,1.31-3.08,1.52s-.52.34-.44.77a18.82,18.82,0,0,0,.62,1.78c.13.51.27.54-.12.77A1.55,1.55,0,0,1,15.9,32a8.92,8.92,0,0,1-.74-2.66c0-.19.1-.31.27-.43a30.86,30.86,0,0,1,3.2-1.79A3.36,3.36,0,0,1,20.52,27.1Z"></path><path fill="#85c952" id="_Path_4" data-name="&lt;Path&gt;" d="M30.31,11.06a5.83,5.83,0,0,0-1.7-2c-.22-.16-.07-.22.16-.24,1-.1,1.45.17,1.51.95A2.71,2.71,0,0,1,30.31,11.06Z"></path></g></svg>