<svg xmlns="http://www.w3.org/2000/svg" class="HeroAbility-icon HeroAbility-icon--hoverState" viewBox="0 0 40 40" preserveAspectRatio="xMidYMid meet"><path fill="#97ef43" id="_Compound_Path_" data-name="&lt;Compound Path&gt;" d="M31.14,12l-9.9-5.72a2.48,2.48,0,0,0-2.48,0L8.86,12a2.48,2.48,0,0,0-1.24,2.14V25.58a2.48,2.48,0,0,0,1.24,2.14L11.11,29v-6.1L9.6,22c-.49-.28-.74-1-.39-1.17L13.53,19c.22-.09.57.11.78.45l4.32,6.81c.35.55.1,1-.39.72l-1.51-.87v6.1l2,1.17a2.48,2.48,0,0,0,2.48,0l2.27-1.31v-6l-1.75,1c-.48.28-.72-.16-.38-.7l4.19-6.62c.21-.33.55-.53.76-.44l4.19,1.77c.34.14.1.86-.38,1.14l-1.49.86v6l2.49-1.44a2.48,2.48,0,0,0,1.24-2.14V14.14A2.48,2.48,0,0,0,31.14,12Zm-1.57,2.13L21,18.38a2.36,2.36,0,0,1-2.1,0L10.4,14.12a.72.72,0,0,1,0-1.27l8.43-4.9a2.36,2.36,0,0,1,2.37,0l8.46,4.91A.72.72,0,0,1,29.57,14.13Z"></path></svg>