<svg xmlns="http://www.w3.org/2000/svg" class="HeroAbility-icon HeroAbility-icon--hoverState" viewBox="0 0 40 40" preserveAspectRatio="xMidYMid meet"><path fill="#97ef43" d="M30.1,8.19c-.67.73-2.91,4.38-2.91,4.19a4.82,4.82,0,0,0-.47-2.12A11.51,11.51,0,0,0,20,7.36h0a11.51,11.51,0,0,0-6.7,2.9,4.82,4.82,0,0,0-.47,2.12c0,.18-2.24-3.47-2.91-4.19s1.48,7.1,1.37,7.63c-.53,2.58-.68,4.43-.51,4.15a16.13,16.13,0,0,1,1.6-2.47A46.32,46.32,0,0,0,20,24.05v0h0v0a46.32,46.32,0,0,0,7.62-6.55A16.13,16.13,0,0,1,29.24,20c.17.28,0-1.57-.51-4.15C28.62,15.28,30.77,7.46,30.1,8.19Z"></path><path fill="#97ef43" d="M20,25.88h0v0l4.36-3a10.05,10.05,0,0,0,.81-1.38c0-.09,1.81-1.9,1.85-2A2,2,0,0,0,27,19a41.36,41.36,0,0,1-7,5.81,43.32,43.32,0,0,1-7-5.7,1.25,1.25,0,0,0,0,.42c0,.08,1.81,1.89,1.85,2a10.06,10.06,0,0,0,.81,1.38l4.36,3v0Z"></path><path fill="#97ef43" d="M28,19.32s-2.31,2.25-2.49,2.44-.82,1.42-1,1.63-4.27,2.85-4.5,3c-.22-.14-4.34-2.79-4.5-3s-.81-1.44-1-1.63S12.07,19.3,12,19.3s-.92,1.47-1,1.56-.41,0-.41.1a19.23,19.23,0,0,0,1.49,3.29c.22,0,1-.13,1.12.09s1.23,3.72,1.43,3.93,4.9,4.07,5.33,4.33v0h0v0c.43-.26,5.14-4.13,5.33-4.33s1.35-3.71,1.43-3.93.9-.07,1.12-.09A19,19,0,0,0,29.39,21c0-.07-.32,0-.41-.1S28,19.32,28,19.32Z"></path></svg>