<svg xmlns="http://www.w3.org/2000/svg" class="HeroAbility-icon HeroAbility-icon--hoverState" viewBox="0 0 40 40" preserveAspectRatio="xMidYMid meet"><path fill="#3e7dca" d="M28.33,13.17A13.72,13.72,0,0,0,27.88,15s0-1.8-2.44-4.58C24.69,9.59,21,6.62,20,6.62s-4.65,3-5.4,3.83C12.16,13.24,12.12,15,12.12,15a13.72,13.72,0,0,0-.45-1.87c-.78.47-.45.87-.36,1.27A7.17,7.17,0,0,1,11.47,16a6.92,6.92,0,0,0,0,.88c-.1.06-.13.44-.13.87a2.49,2.49,0,0,0,.27.95s0,.11,0,.36,0,3.67,0,4,1,.91,1.47,1.22l.12.1c.07.51.07.69.07.69s-.12,0-.13.21.11,1.72.07,2.16a10.62,10.62,0,0,0,0,1.45,4,4,0,0,0-.28,2c0,1.64,1.1,2.46,1.2,2.32s-.14-.57.1-1.09a4.29,4.29,0,0,0,.58-1.61c-.07-.34-.07-1.16-.23-1.21a1.37,1.37,0,0,0,0-.32c0-.16,0-1.78-.07-2.62l.1.23c.05.12,0,.42.1.54s3.2,3.55,3.38,3.69a7.1,7.1,0,0,0,1.86.21,7.1,7.1,0,0,0,1.86-.21c.18-.13,3.31-3.57,3.38-3.69s0-.41.1-.54l.1-.23c0,.85-.06,2.46-.07,2.62a1.37,1.37,0,0,0,0,.32c-.16,0-.16.87-.23,1.21a4.29,4.29,0,0,0,.58,1.61c.24.52,0,1,.1,1.09s1.2-.69,1.2-2.32a4,4,0,0,0-.28-2,10.62,10.62,0,0,0,0-1.45c0-.44.08-1.93.07-2.16s-.13-.21-.13-.21,0-.18.07-.69l.12-.1c.47-.31,1.44-.89,1.47-1.22s0-3.76,0-4,0-.36,0-.36a2.49,2.49,0,0,0,.27-.95c0-.43,0-.81-.13-.87a6.92,6.92,0,0,0,0-.88,7.17,7.17,0,0,1,.16-1.57C28.78,14,29.1,13.64,28.33,13.17ZM25.26,23.66c-.24,1-.24,1.26-.43,1.47a14,14,0,0,0-1.08,1.52c-.39.63-1.55,2.47-1.77,2.86s-.19.3-.42.16A1.91,1.91,0,0,0,20,29.15a1.91,1.91,0,0,0-1.56.51c-.23.15-.2.23-.42-.16s-1.38-2.23-1.77-2.86a14,14,0,0,0-1.08-1.52c-.19-.21-.19-.44-.43-1.47a10.23,10.23,0,0,1-.27-1.38s0-.38,1,0c1.61.62,1.71.66,2.23,1.25s1.54,2.12,1.81,2.43.34.15.47.15.28.07.47-.15,1.3-1.84,1.81-2.43.62-.63,2.23-1.25c1-.4,1,0,1,0A10.23,10.23,0,0,1,25.26,23.66Z"></path></svg>