<svg xmlns="http://www.w3.org/2000/svg" class="HeroAbility-icon HeroAbility-icon--hoverState" viewBox="0 0 40 40" preserveAspectRatio="xMidYMid meet"><path fill="#ae595c" d="M37,18.78c-.14-.71.65-1.1-2-.94-2.47.15-6.74.44-7.79-.11-.34.87-.45.76-.61.7s-.39,0,.17-1.69l.06-.17,0-.3-.14.43c-.56,1.68-.69,1.52-.88,1.45s-.39,0,.17-1.69A4.34,4.34,0,0,1,26.53,15c-.13-.87-.25-1.73-.31-2.29-.13-1.29-.84-1.53-1.76-2.23a27.92,27.92,0,0,0-3.53-2.15,15.73,15.73,0,0,0-2.51.54A27.16,27.16,0,0,0,15,10c-.44.16-.86,1.32-1.57,2.75h0c.21,0,.38-.06.3,1.71s-.24,1.65-.45,1.64-.38.1-.3-1.67c0-.44,0-.76.08-1l-.19.35c0,.18,0,.4,0,.65-.08,1.77-.24,1.65-.45,1.64s-.35.07-.31-1.24a2.23,2.23,0,0,1-1,.14,11.88,11.88,0,0,1-4.78-.79C4.81,13.47,3.59,12.69,3.4,13s-.52.84-.41.92.2.09.1.27-.17.33,0,.5,1.49,2.37,7.76,4.48a4.7,4.7,0,0,1-2,.88,4.66,4.66,0,0,0,2.58-.1,6.57,6.57,0,0,0-1.32,2.64s.63-1,1-.93A7.51,7.51,0,0,0,11,23.88l0,.05a2.4,2.4,0,0,1,1.15-1.29,5.93,5.93,0,0,0,.4,1.91,7.31,7.31,0,0,0,2.1,1.38c.28,0-.17-.17-.32-.85a6.05,6.05,0,0,1-.26-1.75,6.14,6.14,0,0,0,.06-1.39c0-.48-.07-1.16.33-1.5a.07.07,0,0,0,0-.05,71.65,71.65,0,0,0,10.68,2.52,2.87,2.87,0,0,0-.47,1,12.5,12.5,0,0,1-.61,2s.26,0,.64-.38a1.36,1.36,0,0,1,.11,1.15,6.56,6.56,0,0,0,1.55-1.39,2,2,0,0,0,1,1s-.33-.88-.2-1.19a5.14,5.14,0,0,0,2.69.95,17.8,17.8,0,0,1-1.79-2,3.9,3.9,0,0,0-.5-.91,12.81,12.81,0,0,0,3.87-.28C36.14,21.6,37.13,19.49,37,18.78ZM15.54,17.1c-.21,0-.36.15-.54-1.61s0-1.7.2-1.72.36-.11.54,1.65S15.74,17.08,15.54,17.1Zm.88-.09c-.21,0-.36.15-.54-1.61s0-1.7.2-1.72.36-.11.54,1.65S16.62,17,16.41,17Zm5.29-1.16c-.27.43-.94,1.8-2,1.63s-1.38-1.64-1.53-2.12a.62.62,0,0,1,.28-.78c.15-.14.16-.33.25-.71s.24-.39.4-.42a8.6,8.6,0,0,1,1.14.08,6.91,6.91,0,0,1,1.12.25c.14.07.29.12.27.5s-.06.57.05.74A.61.61,0,0,1,21.71,15.85Zm.79,2c-.18-.09-.38-.07.42-1.65s.92-1.43,1.1-1.34.37.1-.44,1.68S22.69,18,22.5,17.88ZM24.37,17c-.8,1.58-.9,1.4-1.08,1.31s-.38-.07.42-1.65.92-1.43,1.1-1.34S25.18,15.39,24.37,17Z"></path><path fill="#ae595c" d="M24.37,27.13A6.62,6.62,0,0,1,23.24,25a1.42,1.42,0,0,0-1.15-.93c-.26-.1.07.34.15.54s-.35-.23-.46-.31-.45,0-.74,0-1.06.09-1.89.08-.74,0-1.35,0-.62-.06-.85.17-.19.06-.12-.19.12-.54.12-.54a4.11,4.11,0,0,0-2,2.46c-.11.18-1.07,1-1.15,1.18s.74,0,1,0,.18.22.14.55-.16.51.31.45.41,0,.44.28,0,.43.22.34.14,0,.33.17,1,.9,1.14,1,.14.55.3.62.79-.24,1-.26.32.23.58.24a1.6,1.6,0,0,0,.69-.24c.25-.1,1,.35,1.06.38s.16-.28.21-.43.11-.18.44-.47a8.19,8.19,0,0,0,.9-1c.07-.1.07,0,.21.12s.14.07.23-.26.32-.27.65-.26.1-.27-.05-.7.62-.25,1.13-.25S24.91,27.65,24.37,27.13Zm-1.69-.46c-.29-.11-.94-.33-.88-.16a1.11,1.11,0,0,1,.13,1.07c-.26.5-.85,1.55-1.48,1.55s-.45-.3-1-.3-.59.3-1,.3-1.1-.65-1.33-1.2S16.9,27,17,26.83s0-.32-.37-.25-.57.16-.58-.29a.76.76,0,0,1,.22-.43c.38-.45.45-.66.7-.71A18,18,0,0,1,19.26,25a12.55,12.55,0,0,1,3,.16,2.8,2.8,0,0,1,.64,1.23C22.88,26.58,23,26.78,22.68,26.67Z"></path><path fill="#ae595c" d="M19.49,26.93c-.17,0-.81.11-1.17.13s-.07.16.17.32a5.86,5.86,0,0,1,1,1,5.77,5.77,0,0,1,1.11-1.09c.33-.14.09-.12-.11-.13S19.66,26.93,19.49,26.93Z"></path></svg>