<svg xmlns="http://www.w3.org/2000/svg" class="HeroAbility-icon HeroAbility-icon--hoverState" viewBox="0 0 40 40" preserveAspectRatio="xMidYMid meet"><path fill="#D78732" d="M36.11,13.89v-.12c0-.12,0-.25,0-.36s0-.3-.06-.44-.06-.18-.09-.26c-.1-.3-.15-.61-.27-.89a8.33,8.33,0,0,0-.59-1.18c-.14-.23-.27-.46-.42-.68a5.24,5.24,0,0,0-1.35-1.35A7.71,7.71,0,0,0,32,8l-.32-.16c-.17-.07-.34-.12-.53-.19a1.73,1.73,0,0,0-.76-.12h0a.53.53,0,0,0-.17,0,1.93,1.93,0,0,0-.53.28L29.38,8s-.06.07-.09.1a2.93,2.93,0,0,0-.49.54c-.06.08-.15.16-.21.25s-.28.46-.43.69-.14.22-.19.32c-.48.93-.81,2-1.22,3-.07.18-.11.36-.18.54s-.22.68-.33,1-.09.36-.14.55-.07.31-.12.47a.76.76,0,0,0,0,.19.69.69,0,0,1-.14-.09l-.26-.15-.16-.08c-.26-.16-.54-.29-.8-.45s-.32-.14-.48-.23-.36-.2-.54-.28-.28-.08-.43-.13L22.42,14c-.14,0-.28,0-.42-.08-.29-.08-.64-.08-.94-.15H19.61c-.37.08-.77.09-1.12.19l-.21,0c-.24.07-.49.16-.72.24s-.29.07-.43.13-.37.18-.54.28-.42.19-.61.31l-.22.11c-.21.13-.45.24-.66.37l-.06,0-.17.12a.4.4,0,0,0-.1.06s0-.13-.06-.19-.08-.33-.13-.5c-.13-.42-.24-.84-.38-1.24-.05-.16-.09-.33-.15-.49-.13-.32-.22-.66-.36-1-.29-.7-.56-1.42-.86-2.1a3.81,3.81,0,0,0-.23-.43c-.05-.09-.08-.17-.14-.26s-.24-.4-.38-.59-.14-.16-.21-.25a2.93,2.93,0,0,0-.49-.54S11.32,8,11.29,8L11,7.78a1.93,1.93,0,0,0-.53-.28.53.53,0,0,0-.17,0h0a1.44,1.44,0,0,0-.64.08A5.21,5.21,0,0,0,9,7.8L8.65,8a6.14,6.14,0,0,0-.84.41c-.15.09-.3.17-.44.26s-.32.26-.49.38-.12.14-.19.19a1.06,1.06,0,0,0-.2.21c-.07.09-.16.16-.23.25L6,10.06a9.27,9.27,0,0,0-1,1.77c-.1.25-.15.52-.24.79L4.66,13c0,.14,0,.29-.06.44s0,.24,0,.36v.12a1.87,1.87,0,0,0,0,.37v.43c0,.12.05.25.08.36s0,.17.06.25a1.73,1.73,0,0,0,.14.28c0,.06,0,.12.08.18A1.65,1.65,0,0,0,5,16l.11.14.1.1a1,1,0,0,0,.17.18l.21.17a.59.59,0,0,1,.1.06h0l0,0h0c.08,0,.1.11.14.18L6,17c.05.08.13.14.18.21s.05.1.09.14.11.09.14.14l.08.12s.1.08.14.13,0,.07.07.1c.31.32.64.61,1,.9l.12.08.14.13c.17.12.34.23.5.36s.14.07.21.12l.36.24.19.09.19.12.12,0,.13.08c.06,0,.12,0,.18.07l.14.08.14,0a.8.8,0,0,0,.16.08,1.57,1.57,0,0,1-.17.28c-.1.17-.19.34-.29.51s-.08.18-.14.28a6.88,6.88,0,0,0-.39.8,2.72,2.72,0,0,1-.17.3c0,.07-.06.15-.1.22s-.17.34-.25.52-.12.24-.17.35-.09.26-.14.4a1.43,1.43,0,0,0-.13.39.48.48,0,0,1-.11,0l-.33-.12-.2-.06-.63-.23a.35.35,0,0,0-.47.17.39.39,0,0,0,.1.43,2.16,2.16,0,0,0,.46.18c.32.13.66.24,1,.36L8,25.63c0,.15,0,.3-.06.45v.13a1.71,1.71,0,0,0,0,.54v.18c0,.14,0,.29.06.41s0,.11,0,.14H8a2.15,2.15,0,0,0-.34,0l-.22,0c-.1,0-.21,0-.3,0H7c-.14,0-.31,0-.45,0s-.5,0-.66.1a.38.38,0,0,0-.16.37c.06.25.25.32.54.25h.25c.16,0,.36,0,.52-.06h.15c.09,0,.22,0,.32,0h.08c.09,0,.2,0,.3,0l.26,0a1.07,1.07,0,0,0,.1.25,3.8,3.8,0,0,0,.23.46c.11.19.2.38.33.56a5.8,5.8,0,0,0,.58.66,2,2,0,0,0,.3.3.9.9,0,0,1-.15.09l-.37.23c-.35.22-.71.45-1,.68-.14.1-.44.23-.33.53a.52.52,0,0,0,.06.12.34.34,0,0,0,.38.1.56.56,0,0,0,.1-.07L8.56,32l.39-.26.65-.4c.23-.14.46-.31.7-.45,0,0,.09.07.13.1l.27.21.08,0a5.71,5.71,0,0,0,.85.5l.6.23.34.14c.28.09.58.14.85.24a1.67,1.67,0,0,1,.32.1h0c0-.06-.11-.14-.14-.19s-.19-.29-.28-.43a3,3,0,0,1-.17-.38,5.67,5.67,0,0,1-.3-.86l0-.26V30.2a1.52,1.52,0,0,1,0-.43c0-.07,0-.13,0-.19.05-.22.08-.44.14-.63s.18-.66.32-1a6.37,6.37,0,0,1,.43-.79c.08-.12.14-.25.22-.36s.21-.24.3-.36l.32-.44.13-.14a.94.94,0,0,1,.19-.21h0c.07.07.11.17.19.23s.13.12.2.17a2.18,2.18,0,0,0,.37.19,1.4,1.4,0,0,0,1.83-1,1.58,1.58,0,0,0,0-.66,1.47,1.47,0,0,0-1-1.13,1.39,1.39,0,0,0-1,0,.58.58,0,0,0-.24.14A1.18,1.18,0,0,1,15,23.5l-.52-.19-.22-.07c-.27-.11-.57-.2-.85-.31a2.48,2.48,0,0,1-.56-.24.61.61,0,0,1-.19-.59.45.45,0,0,1,0-.13.6.6,0,0,1,.28-.21A7.11,7.11,0,0,1,14,21.43l.29-.08a.4.4,0,0,0,.1,0,.56.56,0,0,0,0-.14,2.33,2.33,0,0,0,0-.37l0-.41c0-.12,0-.27,0-.4s0-.16,0-.24a.67.67,0,0,1,.16-.69A.66.66,0,0,1,15,19c.09,0,.15.13.22.19a2.16,2.16,0,0,1,.45.42c.32.43.69.81,1,1.23l.1.1c.09.12.2.23.3.35s.11.1.15.16.3.33.44.52.11.1.15.16.34.37.5.58a3.39,3.39,0,0,1,.26.3l.34-.07c.1,0,.2,0,.31,0l.45-.08.24,0H20a2,2,0,0,1,.4,0,4.41,4.41,0,0,1,1.06.12h.13l.34.06c.07,0,.15,0,.2,0s.19-.2.23-.25l.1-.1c.15-.2.34-.37.5-.58L23,22c.09-.12.2-.22.29-.34l.06,0c.09-.12.2-.23.3-.35l.1-.1c.08-.1.17-.18.25-.28s.37-.43.54-.66.15-.15.21-.23a3.46,3.46,0,0,1,.67-.72c.08-.06.17-.19.26-.22a.53.53,0,0,1,.19,0,.48.48,0,0,1,.47.23,1.22,1.22,0,0,1,0,.63c0,.11,0,.22,0,.32s0,.27,0,.4v.08c0,.13,0,.29,0,.43s0,.19,0,.24h0s.07,0,.1,0l.29.08a7,7,0,0,1,1.11.33c.12.06.24.11.29.25a1,1,0,0,1,0,.14.47.47,0,0,1-.06.34s0,.09-.08.14a.91.91,0,0,1-.41.23c-.48.2-1,.34-1.49.54l-.43.15a.88.88,0,0,0-.18.06c-.06,0-.18-.11-.25-.14a2.42,2.42,0,0,0-.45-.12.6.6,0,0,0-.2,0c-.07,0-.13,0-.19,0a2,2,0,0,0-.3.12,1.39,1.39,0,0,0-.85,1.06,1.57,1.57,0,0,0,0,.66,1.44,1.44,0,0,0,1,1.05,1.48,1.48,0,0,0,1.41-.36.85.85,0,0,0,.21-.25h0c.06.09.17.16.23.25l.38.52c.1.14.23.26.33.4s.14.24.22.36a6.48,6.48,0,0,1,.49.94c.1.23.15.47.23.72s.1.39.15.6,0,.21,0,.32a1.51,1.51,0,0,1,0,.43v.12l0,.26a5.68,5.68,0,0,1-.3.86,2.6,2.6,0,0,1-.14.33l-.21.34a1.2,1.2,0,0,1-.23.32v0l.17,0c.32-.11.68-.18,1-.29.14,0,.28-.11.41-.17l.53-.21a2.91,2.91,0,0,0,.34-.19l.08,0,.5-.32.24-.17c.06,0,.11-.11.18-.14a.81.81,0,0,0,.16.1l.46.29,1,.62c.13.08.25.19.39.27a.34.34,0,0,0,.45-.12.46.46,0,0,0,0-.1c.09-.29-.2-.41-.34-.51-.34-.24-.7-.46-1-.68l-.37-.23a.66.66,0,0,1-.16-.1h0a1.22,1.22,0,0,0,.28-.28l.12-.13.1-.1c.08-.1.17-.19.25-.29s.31-.51.47-.77a3.47,3.47,0,0,0,.21-.41.91.91,0,0,0,.1-.25,1.5,1.5,0,0,1,.29,0c.1,0,.21,0,.3,0h.08c.1,0,.23,0,.32,0h.15c.16,0,.36,0,.52.06h.25c.29.06.47,0,.54-.25a.35.35,0,0,0,0-.13.36.36,0,0,0-.31-.3c-.07,0-.14,0-.21,0-.28-.06-.61,0-.89-.09-.1,0-.21,0-.3,0s-.21,0-.31,0-.11,0-.15,0h-.06a3.31,3.31,0,0,0,.07-.39v-.17a1.86,1.86,0,0,0,0-.5v-.3c0-.21-.05-.44-.1-.64s0-.24-.07-.34,0-.12,0-.16.07,0,.11-.06l.25-.09.72-.27a1.29,1.29,0,0,0,.4-.17.36.36,0,0,0,.11-.32.35.35,0,0,0-.5-.26l-.63.23-.2.06-.33.12a.42.42,0,0,1-.14,0,1,1,0,0,0-.1-.3c0-.06,0-.11,0-.17s-.15-.35-.22-.51a5.67,5.67,0,0,0-.32-.68c0-.07-.06-.16-.11-.23a2.68,2.68,0,0,1-.17-.3,6.91,6.91,0,0,0-.39-.8s0-.1-.07-.15c-.13-.21-.23-.43-.36-.63a1.32,1.32,0,0,1-.17-.28.71.71,0,0,0,.18-.08c.07,0,.15,0,.22-.08l.08-.06L31,20l.13-.08.12,0c.17-.09.34-.2.5-.3l.14-.07.14-.1a1.65,1.65,0,0,0,.17-.1c.17-.13.35-.25.52-.38l.12-.11a1.68,1.68,0,0,0,.17-.12l.07-.08a6.5,6.5,0,0,0,.7-.65l.15-.13s0-.07.07-.1.1-.08.14-.13l.08-.12s.07-.06.1-.09l.14-.19.12-.14.08-.12c0-.06.11-.12.15-.19s0-.05,0-.08a.68.68,0,0,1,.16-.12l.21-.17a1,1,0,0,0,.17-.18l.1-.1.11-.14a2.74,2.74,0,0,0,.38-.7c0-.07,0-.13,0-.21s.05-.24.08-.36v-.37A2.22,2.22,0,0,0,36.11,13.89Z"></path><path fill="#D78732" d="M22.89,27.64a.36.36,0,0,0-.38,0,.62.62,0,0,0-.12.19c0,.08-.12.15-.17.22a.67.67,0,0,1-.13.11l-.12.11a1.62,1.62,0,0,1-.55.24.63.63,0,0,1-.33,0,.52.52,0,0,1-.4-.54,1,1,0,0,0,.57-.21,1.85,1.85,0,0,0,.5-.42,2.34,2.34,0,0,0,.17-.3c.05-.1.21-.36.11-.52s-.41-.19-.6-.24-.31-.05-.46-.09h-.59s0,0-.06,0a1.73,1.73,0,0,0-.43,0h-.24c-.16,0-.33.06-.48.1a1.77,1.77,0,0,0-.44.15c-.21.14,0,.49,0,.64a1.83,1.83,0,0,0,.7.71A1,1,0,0,0,20,28a.52.52,0,0,1-.4.54.63.63,0,0,1-.33,0,1.61,1.61,0,0,1-.55-.24l-.12-.11a.67.67,0,0,1-.13-.11c-.06-.07-.12-.14-.17-.22a.62.62,0,0,0-.12-.19.35.35,0,0,0-.4,0,.31.31,0,0,0-.07.09c-.13.2,0,.4.09.54a2.28,2.28,0,0,0,.87.74,1.11,1.11,0,0,0,.41.15c0,.06,0,.14,0,.21a2.94,2.94,0,0,0,.25.82,1.18,1.18,0,0,0,.92.32h.34l.32-.06a1.2,1.2,0,0,0,.36-.19c.15-.11.23-.59.29-.81a1.47,1.47,0,0,1,0-.27.85.85,0,0,1,.19-.06,2,2,0,0,0,.34-.15,2.37,2.37,0,0,0,.76-.71A1.13,1.13,0,0,0,23,28,.37.37,0,0,0,22.89,27.64Zm-2.06,2.09a.79.79,0,0,1-.07.23s-.11,0-.19.06a1.09,1.09,0,0,1-.67-.06,4.45,4.45,0,0,1-.16-.56c0-.06,0-.14,0-.19v0a1.22,1.22,0,0,0,.6-.35h0a1.22,1.22,0,0,0,.6.35A2,2,0,0,1,20.83,29.73Z"></path></svg>