<svg xmlns="http://www.w3.org/2000/svg" class="HeroAbility-icon HeroAbility-icon--hoverState" viewBox="0 0 40 40" preserveAspectRatio="xMidYMid meet"><path fill="#7c8f7b" d="M21.17,25.77v-9c0-.31,0-.34-.23-.34h-4.1c-.23,0-.23,0-.23.34v9c0,.34,0,.34.26.34h4C21.16,26.11,21.17,26.11,21.17,25.77ZM18.89,25c-1.32,0-1.42,0-1.42-.57s0-6.42,0-7,0-.52,1.4-.52,1.4,0,1.4.52,0,6.45,0,7S20.21,25,18.89,25Z"></path><path fill="#7c8f7b" d="M18.89,17.49c-1.05,0-1.05,0-1.05.38v6.27c0,.43,0,.43,1.05.43s1.05,0,1.05-.43V17.87C19.94,17.51,19.94,17.49,18.89,17.49Z"></path><path fill="#7c8f7b" d="M18.89,26.43H16.77c-.13,0-.12.06,0,.2a5.16,5.16,0,0,0,.32.47s.09.1.35.1h2.94c.26,0,.3-.05.35-.1a5.17,5.17,0,0,0,.32-.47c.1-.15.11-.2,0-.2Z"></path><path fill="#7c8f7b" d="M24.18,14.88H21.4c-.36,0-.35,0-.28.14.32.78.26.62.32.78s.07.19.07.75.09,10.15,0,10.31-.29.34-.43.54-.12.16-.37.16H17.06c-.25,0-.23,0-.37-.16s-.34-.37-.43-.54,0-9.75,0-10.31a1.86,1.86,0,0,1,.07-.75,7.68,7.68,0,0,1,.32-.78c.07-.17.08-.13-.28-.14H13.59c-.21,0-.24,0-.77.57s-.66.61-.66,1.2V31.21c0,.33,0,.33.22.53a7.53,7.53,0,0,0,1,.88h1.94c.17,0,.17,0,.26-.12s.77-1.05.94-1.24.16-.18.53-.18h3.73c.37,0,.36,0,.53.18s.85,1.11.94,1.24.09.12.26.12h1.94a7.53,7.53,0,0,0,1-.88c.2-.19.22-.19.22-.53V16.64c0-.59-.12-.65-.66-1.2S24.39,14.88,24.18,14.88Z"></path><path fill="#7c8f7b" d="M26.44,18l-.55-.54V31.3l.54-.46a.33.33,0,0,0,.12-.25V18.28A.33.33,0,0,0,26.44,18Z"></path><path fill="#7c8f7b" d="M16.91,16.07h4c.13,0,.15-.07.09-.24A11.73,11.73,0,0,0,20,13.5H17.75a11.73,11.73,0,0,0-.93,2.32C16.76,16,16.78,16.07,16.91,16.07Z"></path><path fill="#7c8f7b" d="M11.23,18.28V30.58a.33.33,0,0,0,.12.25l.54.46V17.5l-.55.54A.33.33,0,0,0,11.23,18.28Z"></path><path fill="#7c8f7b" d="M32.78,11.37c-.16-.11-1.26.34-1.26.34.95-.4.9-.47.9-.47a1.55,1.55,0,0,0-.61.09c.1-.09.09-.11.09-.11a1.09,1.09,0,0,0-.47,0c-.28,0-.16.05-.59.14s-1.1.29-1.22.33-.1,0-.15,0a4.39,4.39,0,0,0-1.14.37.92.92,0,0,1-.6-.11c-.32-.16-.58-.31-1.08-.61s-1.19-.95-1.38-1.07A6.59,6.59,0,0,0,24,9.92c-.27-.06-.31-.5-.43-1A2.4,2.4,0,0,0,23,8a3.39,3.39,0,0,0-.16-1.08,4,4,0,0,0-.65.79c-.07.08-.09.05-.34.13a1.21,1.21,0,0,0-.6.43A4.85,4.85,0,0,0,21,9.37c-.08.49,0,.48.14.67a2.92,2.92,0,0,1,.12,1.49c-.05.14,0,.19,0,.19s.17-.13.17-.13a2.58,2.58,0,0,0,.27,1.24,5.74,5.74,0,0,0,1.53,1.61c0-.1.23-.11.4,0a7.76,7.76,0,0,0,1.23.42c0-.19.15-.11.68.08a.79.79,0,0,1-.16.13c-.05,0-.11,0-.11.07s0,.08-.08.07l-.38-.05a.51.51,0,0,0-.43,0c-.17.11.18.41.27.37s.1-.07.32,0a.7.7,0,0,0,.5,0c.06,0,.06-.09.11-.16A3.22,3.22,0,0,1,25.9,15a3.15,3.15,0,0,0,.65.13,2.17,2.17,0,0,1-1.21.46c-.6,0-.34-.22-.72.1s.29.64.47.53.32-.23.44-.19.68,0,.67-.1,0-.12.06-.18,1-.59,1-.71l.07,0c.07-.26,0-.29,0-.68s.38-.39.5-.58a.46.46,0,0,1,.43-.23,1.6,1.6,0,0,0,.39-.08c.05,0,0-.08.11-.06a1,1,0,0,0,.48.05c.09,0-.22-.34-.19-.36A.07.07,0,0,0,29,13s-.1-.09,0-.1a20.33,20.33,0,0,0,2.58-.57c1.06-.32,1.18-.71,1.08-.7s-1.14.36-1.14.36C32.8,11.49,32.78,11.37,32.78,11.37Z"></path></svg>