<svg xmlns="http://www.w3.org/2000/svg" class="HeroAbility-icon HeroAbility-icon--hoverState" viewBox="0 0 40 40" preserveAspectRatio="xMidYMid meet"><g id="_Group_" data-name="&lt;Group&gt;"><path fill="#7c8f7b" id="_Compound_Path_" data-name="&lt;Compound Path&gt;" d="M26.53,18.26l.57.33a.25.25,0,0,1,.16.2c0,.1.13.1.19.15s.15.08.21,0,.07,0,.12,0l.63.36a.15.15,0,0,1,.09.14c0,.1.05.14.12.18l.57.33a.82.82,0,0,1,.28.27c.05.09.12.14.23.05s.21,0,.29,0c.31.16.6.34.9.51a.11.11,0,0,1,.06.15c0,.09,0,.13.07.17l.2.12a.69.69,0,0,1,.35.44c.09.32.2.63.3.94a.17.17,0,0,1-.07.23c-.29.22-.29.22,0,.49l.49.51c.13.14.28.27.42.4a.64.64,0,0,1,.18.27c.13.37.3.73.41,1.11a1.35,1.35,0,0,1,0,.45c0,.34-.06.67-.08,1a.41.41,0,0,1-.08.21l-.72,1.06a.45.45,0,0,1-.24.19,11,11,0,0,0-1.05.4,2.3,2.3,0,0,1-1,.14c-.37,0-.74,0-1.11,0-.56,0-1.11,0-1.67,0-.19,0-.39,0-.58,0-.44,0-.88-.06-1.33,0a6.31,6.31,0,0,1-1.84-.36l-.58-.13c-.37-.09-.74-.18-1.1-.3a.52.52,0,0,0-.17,0c-.52,0-1,0-1.55,0a7.24,7.24,0,0,0-1.87.11c-.41.12-.82.2-1.23.31l-1.35.32-.2,0c-.8,0-1.61,0-2.41,0-.54,0-1.09,0-1.63,0-.7,0-1.4,0-2.09,0a1.36,1.36,0,0,1-.61-.16L7.8,28.17a.61.61,0,0,1-.26-.27L7,26.77a.35.35,0,0,1,0-.17c0-.4,0-.81,0-1.21A.46.46,0,0,1,7,25.15l.62-1,0-.05c.58-.44,1.16-.88,1.78-1.26a1.83,1.83,0,0,1,.45-.17c.13,0,.27-.07.33-.23s.13-.12.21-.17l.95-.69a1.31,1.31,0,0,1,.47-.24.34.34,0,0,0,.15-.1,9.82,9.82,0,0,1,.78-.68.93.93,0,0,1,.46-.17.72.72,0,0,0,.38-.2,4.25,4.25,0,0,1,.83-.69,1.81,1.81,0,0,1,.44-.11.07.07,0,0,1,.09.07c0,.13.09.13.2.1s.51-.13.76-.19.28-.18.48-.2a.83.83,0,0,1-.31-.62c0-.11.07-.25.15-.36s.1,0,.14,0a1.62,1.62,0,0,0,.77.32,1.65,1.65,0,1,0,.26-3.27,1.66,1.66,0,0,0-1.64,1.88c0,.08,0,.13-.1.13H10.37a.29.29,0,0,0-.29.13.25.25,0,0,1-.22.1q-.95,0-1.9,0a.16.16,0,0,1-.08,0,1.24,1.24,0,0,1-.62-.73,6.42,6.42,0,0,1-.17-1.37A8.72,8.72,0,0,1,7.16,14a1.3,1.3,0,0,1,.56-.92.45.45,0,0,0,.16-.23c.07-.19.15-.38.22-.57a.14.14,0,0,1,.16-.11H9.93c.17,0,.25.11.32.22a.27.27,0,0,0,.25.12h7.56a1.43,1.43,0,0,0,.76-.17c.23-.14.49-.24.73-.36.07,0,.13-.05.2,0s.06,0,.07,0,.17-.06.25-.06c.67,0,1.33,0,2,0,.39,0,.79,0,1.18,0s.75,0,1.13,0l.34,0c.09,0,.12.11.23.12a4.73,4.73,0,0,0,.51,0c.36,0,.71,0,1.07,0,.09,0,.16,0,.18-.11s.07-.06.11-.06h1a.12.12,0,0,1,.13.11s0,.07,0,.1c0,.32,0,.65,0,1,0,.15,0,.29,0,.44s0,.08.1.1.31,0,.47,0a.3.3,0,0,1,.16.09l.35.41a.54.54,0,0,1,.1.38c0,.09,0,.17.1.21s.06.12,0,.18c-.08.24,0,.3.23.26,0,0,.09,0,.12,0a2.8,2.8,0,0,0,.3.35c.07.07.12.16.19.23s.12.16.05.26-.11.24,0,.36a.21.21,0,0,1,0,.22,2,2,0,0,1-.21.59.47.47,0,0,1-.26.2,6.19,6.19,0,0,0-.81.3l-.06,0a.42.42,0,0,1-.55.07c-.07,0-.11,0-.14.06s-.07.17-.1.25,0,.16-.16.17-.09.12-.14.19-.09.08-.16,0-.42-.24-.62-.37A.55.55,0,0,0,26.53,18.26Zm5.14,8.12a2.22,2.22,0,0,0-2.24-2.24,2.23,2.23,0,0,0,0,4.47A2.22,2.22,0,0,0,31.68,26.38Zm-19.77-.21A1.92,1.92,0,0,0,10,24.25a1.92,1.92,0,1,0,0,3.85A1.92,1.92,0,0,0,11.91,26.17Zm6.69-.52A1.62,1.62,0,0,0,20.26,24a1.59,1.59,0,0,0-1.66-1.65A1.57,1.57,0,0,0,17,24,1.62,1.62,0,0,0,18.6,25.65Zm8.85-3.87a1.4,1.4,0,0,0-1.39-1.42,1.36,1.36,0,0,0-1.43,1.39A1.35,1.35,0,0,0,26,23.17,1.38,1.38,0,0,0,27.45,21.77ZM13.84,24.36a1.27,1.27,0,0,0,1.28,1.28,1.24,1.24,0,0,0,1.28-1.28,1.23,1.23,0,0,0-1.3-1.28A1.25,1.25,0,0,0,13.84,24.36Zm2.43-11h1.6c.27,0,.26,0,.3-.27s0-.15-.14-.15c-1,0-2.09,0-3.14,0-.23,0-.36,0-.43.28s-.06.17.11.17Zm-4.53,0h1.2c.31,0,.3,0,.2-.29a.21.21,0,0,0-.24-.16c-.75,0-1.49,0-2.24,0a.36.36,0,0,0-.41.25c-.07.17-.06.2.13.2Z"></path><path fill="#7c8f7b" id="_Path_" data-name="&lt;Path&gt;" d="M16.11,16.9a1.31,1.31,0,0,1,1.3-1.32,1.32,1.32,0,1,1,0,2.64A1.31,1.31,0,0,1,16.11,16.9Z"></path><path fill="#7c8f7b" id="_Path_2" data-name="&lt;Path&gt;" d="M30.81,26.46a1.12,1.12,0,1,1-1.12-1.12A1.11,1.11,0,0,1,30.81,26.46Z"></path><path fill="#7c8f7b" id="_Path_3" data-name="&lt;Path&gt;" d="M10.11,25.16A1.12,1.12,0,1,1,9,26.28,1.11,1.11,0,0,1,10.11,25.16Z"></path><path fill="#7c8f7b" id="_Path_4" data-name="&lt;Path&gt;" d="M17.31,24a1.31,1.31,0,0,1,1.29-1.33,1.32,1.32,0,1,1,0,2.64A1.3,1.3,0,0,1,17.31,24Z"></path><path fill="#7c8f7b" id="_Path_5" data-name="&lt;Path&gt;" d="M27.15,21.81A1.12,1.12,0,1,1,26,20.68,1.11,1.11,0,0,1,27.15,21.81Z"></path><path fill="#7c8f7b" id="_Path_6" data-name="&lt;Path&gt;" d="M15.12,25.41a1,1,0,0,1-1-1,1.08,1.08,0,0,1,1-1,1.05,1.05,0,0,1,1,1A1,1,0,0,1,15.12,25.41Z"></path></g></svg>