<svg xmlns="http://www.w3.org/2000/svg" class="HeroAbility-icon HeroAbility-icon--hoverState" viewBox="0 0 40 40" preserveAspectRatio="xMidYMid meet"><path fill="#57565B" d="M37.68,12.87a9.87,9.87,0,0,1-1.95.94,17.35,17.35,0,0,1-2.52.35A10,10,0,0,1,30.66,14a28.65,28.65,0,0,1-2.82-.87s-.65-1.55-.76-1.88-.09-.4-.28-.47a.81.81,0,0,0-.43,0A5.87,5.87,0,0,1,26,9.86c-.24-.7-1.95-4.39-2.13-4.7s-.21-.79-.72-.79a9.59,9.59,0,0,0-2.23.54,2.3,2.3,0,0,1-1.12.19c-.45,0,0,.19.37.31s.88.4.46.34a7.65,7.65,0,0,1-2.17-.94,2.64,2.64,0,0,0-1.62-.55c-.71,0-.86.33-1.17.83s-2.07,5.23-2.17,5.5-.19.24-.36.24-.17,0-.24.25a15.11,15.11,0,0,1-.47,1.58c-.2.48-.25.5-.58.57s-4.78.54-6.27.66a8.53,8.53,0,0,1-3.15-.37.42.42,0,0,0-.55.14,14.63,14.63,0,0,0,1,1.21c.32.32.32.32.94.41a27.61,27.61,0,0,1,3.35,1.54S17.56,20.25,19.61,21s1.7,1.2,2.43,1.2a28.42,28.42,0,0,0,6.23-1.88c1.23-.51,5.74-3.15,7.09-3.88s1.5-1.06,1.63-1.23l.94-1.15a3.08,3.08,0,0,0,.2-1.19C38.08,12.37,37.85,12.71,37.68,12.87Zm-21.28,2c-.29.67-.77.33-.77,0s.22-.84.55-.75S16.53,14.57,16.39,14.9Zm5.6.94c-.08.08-.2.21-.24.24s-.94-.94-.88-.81.24.45.21.48a1.41,1.41,0,0,1-.94.37H20a1.41,1.41,0,0,1-.94-.37,3.56,3.56,0,0,0,.22-.48c0-.1-.86.83-.89.81s-.16-.16-.24-.24-.09-.11,0-.19.2-.44.24-.5-2.25-1.88-2.29-1.94-.24-.68-.17-.64,2.43,1.6,2.57,1.69.12,0,.09,0-2.77-1.95-2.77-1.95-.09-.59,0-.53L19,13.67a1.27,1.27,0,0,1,1-.48h.1a1.25,1.25,0,0,1,1,.48l3.19-1.88c.13-.07,0,.53,0,.53s-2.74,1.88-2.77,1.95,0,.09.09,0,2.49-1.66,2.57-1.69-.13.59-.17.64-2.32,1.88-2.29,1.94.19.42.24.5.09.14,0,.23Zm1.79-.94c-.14-.33-.09-.67.23-.75s.55.42.55.75-.49.67-.81,0Z"></path><path fill="#57565B" d="M23.15,37.29l-.17.19A1.45,1.45,0,0,0,23.15,37.29Z"></path><path fill="#57565B" d="M24.18,21.93c1.66,7.39-1.07,11.46-1.07,11.46,1.31-1.46,2.52-5,2.52-5-.4,6-1.88,8.31-2.43,8.93a22.66,22.66,0,0,0,5.64-13.77,10,10,0,0,1,.32,3.4,17.45,17.45,0,0,0,.08-6.79A25.59,25.59,0,0,1,24.18,21.93Z"></path><path fill="#57565B" d="M16.39,25.94a5.3,5.3,0,0,1-1.72-3.59c-.3.67-.94-.44-1.28-1.49A3.4,3.4,0,0,1,13.34,19l-.85-.33c-.56,1.11-.25,4.52-.25,4.52a4,4,0,0,1,.64-1.82c-.4,2-.26,3.46.78,4.84a4.14,4.14,0,0,0,2,1.62,11.39,11.39,0,0,1-1.06-3.17A4.7,4.7,0,0,0,16.39,25.94Z"></path><path fill="#57565B" d="M22,25c-.19,0-1-.69-1.26-.69s-.56.29-.77.29-.54-.29-.76-.29S18.14,25,18,25a.44.44,0,0,1-.31-.15A3.25,3.25,0,0,0,20,26.35a3.25,3.25,0,0,0,2.33-1.47A.43.43,0,0,1,22,25Z"></path><circle fill="#57565B" cx="17.08" cy="24.53" r="0.1"></circle></svg>