<svg xmlns="http://www.w3.org/2000/svg" class="HeroAbility-icon HeroAbility-icon--hoverState" viewBox="0 0 40 40" preserveAspectRatio="xMidYMid meet"><path fill="#b9b48a" d="M28.47,21c0-.15-.77.12-.75,0s1.11-1.31,1.11-2.18c0-.22-1.8.46-1.58.14s1.49-1.79.56-1.26a9.36,9.36,0,0,1-1.18.59,9.34,9.34,0,0,0-.9-3.26,4.19,4.19,0,0,0-2.28-2h0c1.48-.69,1.2-1.09,1.2-1.09a2,2,0,0,1-.67,0,7,7,0,0,0-.87,0A3.94,3.94,0,0,0,25,9a4.26,4.26,0,0,1-1.26.51,8.63,8.63,0,0,0-1.8.86,2.35,2.35,0,0,0,.42-2,5.84,5.84,0,0,1,.07-2.06,5,5,0,0,0-4,3.36A6.43,6.43,0,0,1,18,8.72c-.23.24-.07,1.62-.07,1.62-.82-.87-2-.47-2.64-.47s-.76-.33-.71-.18c.85,2.32,1.76,3,2.31,3.22A4.33,4.33,0,0,0,14.27,15a9.34,9.34,0,0,0-.9,3.26,9.36,9.36,0,0,1-1.18-.59c-.93-.53.34.93.56,1.26s-1.58-.36-1.58-.14c0,.87,1.08,2.08,1.11,2.18s-.78-.18-.75,0a5.61,5.61,0,0,0,1.1,1.46l0,.27c-.11,0-.21,0-.22,0a.74.74,0,0,0,.17.4c-.15,1.1-.31,2.31-.45,3.55-.21,1.88-.3,2.66-.06,3.08a9,9,0,0,0,.3-1.41,27.94,27.94,0,0,1,1.23-4.14,3.19,3.19,0,0,1,.76,1c0,.24.69.19.24-.9a4.86,4.86,0,0,1-.29-1.83,38.76,38.76,0,0,1,3.07-5.39c.92-1.33,2-2.74,2.38-2.74s1,3.16.72,3.07-.24-2.46-.93-2.11S17.83,17.57,18,17.74a4.46,4.46,0,0,0,2,.82c1.31,0,2-1.42,3.46-1.46s1.81,2,2,3.26a8.13,8.13,0,0,1-.1,4c-.45,1.09.2,1.14.24.9a3.9,3.9,0,0,1,1.13-1.38c.71-.63.86-1.06.83-1.13s-.5,0-.57.06,0,0,.16-.19A6.59,6.59,0,0,0,28.47,21Z"></path><path fill="#b9b48a" d="M24.27,28.57c-.11.07-.43.35-.42.22a2.66,2.66,0,0,0-.34-1.11,4.21,4.21,0,0,0-2.08-1,10.3,10.3,0,0,0-1.46.58,10.3,10.3,0,0,0-1.46-.58,4.21,4.21,0,0,0-2.08,1,2.66,2.66,0,0,0-.34,1.11c0,.13-.32-.15-.42-.22s-.77-.61.31,1,2,2.45,2.29,3,.34.79.43.71.11-.13.23-.24.14-.14.26,0a7.69,7.69,0,0,0,.77.77,7.69,7.69,0,0,0,.77-.77c.12-.12.14-.09.26,0s.14.16.23.24.12-.21.43-.71,1.21-1.39,2.29-3S24.38,28.5,24.27,28.57Zm-1.79,1.77c-.29.5-.49.94-.7.94C21,31.29,20.25,30,20,30s-1.06,1.28-1.82,1.28c-.21,0-.41-.45-.7-.94s-.73-.82-.67-1.47,0-.79.65-1a4.26,4.26,0,0,1,1.07-.35c.67,0,1,.28,1.46.28s.8-.28,1.46-.28a4.26,4.26,0,0,1,1.07.35c.62.22.58.24.65,1S22.79,29.83,22.49,30.34Z"></path></svg>