<svg xmlns="http://www.w3.org/2000/svg" class="HeroAbility-icon HeroAbility-icon--hoverState" viewBox="0 0 40 40" preserveAspectRatio="xMidYMid meet"><g id="_Group_3" data-name="&lt;Group&gt;"><g id="_Group_4" data-name="&lt;Group&gt;"><path fill="#b9b48a" id="_Compound_Path_3" data-name="&lt;Compound Path&gt;" d="M16.51,24.29l.79-2.53.9-2.89L19,16.38l0-.09.09,0,1.08.49a.44.44,0,0,0,.19,0c.11,0,.25-.06.28-.32.15-1.29.31-2.57.47-3.86l.25-2q.18-1.44.36-2.88v-.1a2,2,0,0,0,0-.53l0-.39-.63.68-.73.79L16.2,12.85,15.2,14c-.1.11-.19.21-.17.34s.14.19.28.25l1.42.69.12.06,0,.15q-.34,1.2-.68,2.4Q15.27,21,14.4,24.09h0L12,23.35l-1-.32-2.69-.82-.45-.16L7.6,22a.35.35,0,0,0-.36.06.26.26,0,0,0,0,.37l.13.2.23.38.67,1.18.6,1.05.9,1.57,1,1.76,1.55,2.72,1,1.74a.27.27,0,0,0,.24.18h0a.28.28,0,0,0,.21-.25c.13-.41.26-.82.39-1.23l.56-1.81.86-2.78Zm-3.15,3.52c-.14.47-.28,1-.41,1.43l-.09.33-3.3-5.12,1.59,1.31,2.12,1.74A.23.23,0,0,1,13.37,27.81Zm.69-2.45q-.17.56-.33,1.13l-2-1.47L10.37,24l1.48.56,2.2.83Z"></path><path fill="#b9b48a" id="_Path_" data-name="&lt;Path&gt;" d="M23.29,24.44,24.55,23l1.1-1.29,0,0,.05,0c.16.11.34.2.51.29l.31.17A.3.3,0,0,0,27,22l.2-.41.09-.17,2.55-5a.29.29,0,0,0,0-.31l0-.08-.15,0a.41.41,0,0,0-.23.08l0,0-3.82,2-2.44,1.3c-.1.05-.23.12-.24.26s.11.23.2.29l.15.1.52.36-.66.85-.61.81-2.72,3.59c0,.06-.06.06-.06.06H19.7l-1.27-.39L17.32,25a.34.34,0,0,0-.48.22c-.1.26-.19.48-.28.68a.38.38,0,0,0,0,.3.39.39,0,0,0,.24.2l.95.35,1,.37q-.76,1-1.5,2v0h0l-.61-.46-.51-.39a.41.41,0,0,0-.24-.1c-.09,0-.22,0-.29.26s-.11.31-.18.46a.36.36,0,0,0,.12.47l1.89,1.56a.37.37,0,0,0,.23.1.35.35,0,0,0,.26-.14l.65-.77.5-.59.88-1,1.35-1.59Z"></path><path fill="#b9b48a" id="_Path_2" data-name="&lt;Path&gt;" d="M32.63,22.72a.41.41,0,0,0-.27,0l-1.07.37-2.86,1-.12,0c-.15,0-.37.08-.41.29s.15.35.26.43l.1.07,0,0c-.87.78-1.76,1.58-2.63,2.39-.16.15-.2.11-.33.07l-1.56-.48-1.06-.32a.37.37,0,0,0-.43.11l-.85.93a.27.27,0,0,0,.12.49l.5.19.41.16,2.9,1.09a.43.43,0,0,0,.15,0,.28.28,0,0,0,.23-.13,2,2,0,0,1,.4-.39l.16-.13,1.37-1.18,2-1.68,0,0,0,0,.29.22.27.21a.39.39,0,0,0,.24.1.34.34,0,0,0,.28-.2l1.2-2,.5-.85.21-.38.21-.36Z"></path></g></g></svg>